G04*
G04 #@! TF.GenerationSoftware,Altium Limited,Altium Designer,24.5.2 (23)*
G04*
G04 Layer_Color=8421504*
%FSLAX25Y25*%
%MOIN*%
G70*
G04*
G04 #@! TF.SameCoordinates,BBB7617A-DA1A-4C19-9726-6272869F5A44*
G04*
G04*
G04 #@! TF.FilePolarity,Positive*
G04*
G01*
G75*
%ADD16R,0.08504X0.04213*%
%ADD17R,0.03937X0.05512*%
%ADD18R,0.05512X0.03937*%
%ADD19R,0.03150X0.05906*%
%ADD20R,0.14173X0.10236*%
%ADD21R,0.01772X0.05709*%
%ADD22R,0.01968X0.03150*%
%ADD23R,0.04016X0.03701*%
%ADD24R,0.05118X0.04724*%
%ADD25R,0.04724X0.05118*%
%ADD26R,0.03701X0.04016*%
%ADD27R,0.11417X0.21260*%
%ADD28R,0.08661X0.16929*%
%ADD29R,0.04134X0.02362*%
%ADD30R,0.06016X0.02559*%
%ADD31R,0.05118X0.02362*%
G36*
X153616Y240951D02*
X147829D01*
Y245085D01*
X123419D01*
Y279337D01*
X147829D01*
Y283471D01*
X153616D01*
Y240951D01*
D02*
G37*
D16*
X97829Y248825D02*
D03*
Y255518D02*
D03*
Y262211D02*
D03*
Y268904D02*
D03*
Y275597D02*
D03*
D17*
X411221Y216138D02*
D03*
X418701D02*
D03*
X414961Y224799D02*
D03*
D18*
X190551Y21457D02*
D03*
Y13976D02*
D03*
X199213Y17717D02*
D03*
D19*
X251220Y72835D02*
D03*
X246220D02*
D03*
X241220D02*
D03*
X236221D02*
D03*
X231221D02*
D03*
X226220D02*
D03*
X221220D02*
D03*
X256221D02*
D03*
X226220Y9843D02*
D03*
X231221D02*
D03*
X236221D02*
D03*
X241220D02*
D03*
X246220D02*
D03*
X251220D02*
D03*
X256221D02*
D03*
X221220D02*
D03*
X300197Y72835D02*
D03*
X305197D02*
D03*
X310197D02*
D03*
X300197Y9843D02*
D03*
X305197D02*
D03*
X310197D02*
D03*
D20*
X291752Y303150D02*
D03*
X353917D02*
D03*
D21*
X385729Y246440D02*
D03*
X388287D02*
D03*
X390847D02*
D03*
X393406D02*
D03*
X395965D02*
D03*
X398524D02*
D03*
X401083D02*
D03*
X403642D02*
D03*
X406201D02*
D03*
X408760D02*
D03*
X385729Y269668D02*
D03*
X388287D02*
D03*
X390847D02*
D03*
X393406D02*
D03*
X395965D02*
D03*
X398524D02*
D03*
X401083D02*
D03*
X403642D02*
D03*
X406201D02*
D03*
X408760D02*
D03*
D22*
X262402Y270079D02*
D03*
X265945D02*
D03*
X269488D02*
D03*
X273031D02*
D03*
Y265354D02*
D03*
X269488D02*
D03*
X265945D02*
D03*
X262402D02*
D03*
D23*
X259693Y282659D02*
D03*
Y288880D02*
D03*
Y247195D02*
D03*
Y253415D02*
D03*
X266071Y247195D02*
D03*
Y253415D02*
D03*
X273012Y247195D02*
D03*
Y253415D02*
D03*
X208895Y23586D02*
D03*
Y17365D02*
D03*
X413175Y146632D02*
D03*
Y140412D02*
D03*
Y128595D02*
D03*
Y134815D02*
D03*
X404228Y222481D02*
D03*
Y216261D02*
D03*
X417323Y239331D02*
D03*
Y233110D02*
D03*
X420130Y292480D02*
D03*
Y286260D02*
D03*
X413175Y115984D02*
D03*
Y122205D02*
D03*
X403543Y77598D02*
D03*
Y83819D02*
D03*
Y53976D02*
D03*
Y60197D02*
D03*
Y101221D02*
D03*
Y107441D02*
D03*
D24*
X273012Y281792D02*
D03*
Y289272D02*
D03*
X266071Y281792D02*
D03*
Y289272D02*
D03*
X210195Y265748D02*
D03*
Y273228D02*
D03*
X198771Y265748D02*
D03*
Y273228D02*
D03*
X90448Y221405D02*
D03*
Y228886D02*
D03*
X83261Y221405D02*
D03*
Y228886D02*
D03*
X414961Y246440D02*
D03*
Y253920D02*
D03*
X357465Y259558D02*
D03*
Y267038D02*
D03*
Y240268D02*
D03*
Y232787D02*
D03*
X379910Y285630D02*
D03*
Y293110D02*
D03*
D25*
X218465Y84646D02*
D03*
X225945D02*
D03*
X218465Y92520D02*
D03*
X225945D02*
D03*
X206754Y6344D02*
D03*
X199274D02*
D03*
X106696Y229188D02*
D03*
X99215D02*
D03*
X395472Y147638D02*
D03*
X387992D02*
D03*
D26*
X196725Y28799D02*
D03*
X190504D02*
D03*
X91845Y288430D02*
D03*
X98066D02*
D03*
X98066Y294335D02*
D03*
X91845D02*
D03*
X386653Y116142D02*
D03*
X392874D02*
D03*
X390905Y92520D02*
D03*
X384685D02*
D03*
X390905Y68898D02*
D03*
X384685D02*
D03*
D27*
X175575Y313072D02*
D03*
X136599D02*
D03*
D28*
X121885Y313677D02*
D03*
X94325D02*
D03*
D29*
X385433Y80709D02*
D03*
X394094Y84449D02*
D03*
Y76968D02*
D03*
X393898Y100591D02*
D03*
Y108071D02*
D03*
X385236Y104331D02*
D03*
X394094Y53347D02*
D03*
Y60827D02*
D03*
X385433Y57087D02*
D03*
D30*
X378894Y139205D02*
D03*
Y134205D02*
D03*
Y129205D02*
D03*
Y124205D02*
D03*
X400240D02*
D03*
Y129205D02*
D03*
Y134205D02*
D03*
Y139205D02*
D03*
D31*
X390748Y296870D02*
D03*
Y291870D02*
D03*
Y286870D02*
D03*
Y281870D02*
D03*
X412402Y296870D02*
D03*
Y291870D02*
D03*
Y286870D02*
D03*
Y281870D02*
D03*
M02*
