G04*
G04 #@! TF.GenerationSoftware,Altium Limited,Altium Designer,24.5.2 (23)*
G04*
G04 Layer_Physical_Order=1*
G04 Layer_Color=255*
%FSLAX25Y25*%
%MOIN*%
G70*
G04*
G04 #@! TF.SameCoordinates,C1D1CED9-D59A-4D41-A557-90BC5B06C9CD*
G04*
G04*
G04 #@! TF.FilePolarity,Positive*
G04*
G01*
G75*
%ADD16R,0.08504X0.04213*%
%ADD17R,0.03937X0.05512*%
%ADD18R,0.05512X0.03937*%
%ADD19R,0.03150X0.05906*%
%ADD20R,0.14173X0.10236*%
%ADD21R,0.01772X0.05709*%
%ADD22R,0.01968X0.03150*%
%ADD23R,0.04016X0.03701*%
%ADD24R,0.05118X0.04724*%
%ADD25R,0.04724X0.05118*%
%ADD26R,0.03701X0.04016*%
%ADD27R,0.11417X0.21260*%
%ADD28R,0.08661X0.16929*%
%ADD29R,0.04134X0.02362*%
%ADD30R,0.06016X0.02559*%
%ADD31R,0.05118X0.02362*%
%ADD65C,0.01654*%
%ADD66C,0.01575*%
%AMCUSTOMSHAPE67*
4,1,8,0.15098,-0.21260,0.09311,-0.21260,0.09311,-0.17126,-0.15098,-0.17126,-0.15098,0.17126,0.09311,0.17126,0.09311,0.21260,0.15098,0.21260,0.15098,-0.21260,0.0*%
%ADD67CUSTOMSHAPE67*%

%ADD68C,0.07874*%
%ADD69C,0.03150*%
%ADD70C,0.01968*%
%ADD71C,0.03937*%
%ADD72C,0.05512*%
%ADD73C,0.13780*%
%ADD74C,0.09449*%
%ADD75C,0.05906*%
%ADD76C,0.05118*%
%ADD77C,0.03937*%
%ADD78R,0.06496X0.06496*%
%ADD79C,0.06496*%
%ADD80C,0.05394*%
%ADD81R,0.05394X0.05394*%
%ADD82R,0.05394X0.05394*%
%ADD83C,0.04803*%
%ADD84R,0.04803X0.04803*%
%ADD85C,0.05437*%
%ADD86C,0.06000*%
%ADD87C,0.03150*%
%ADD88C,0.02756*%
G36*
X39370Y340312D02*
X500000D01*
X500894Y340056D01*
X501241Y339824D01*
X501473Y339477D01*
X501729Y338583D01*
X501741Y338523D01*
X501741Y337583D01*
X501743Y308057D01*
X501756Y307988D01*
X501736Y307571D01*
X501920Y303834D01*
X502469Y300132D01*
X503378Y296502D01*
X504638Y292979D01*
X506238Y289597D01*
X508162Y286387D01*
X510391Y283381D01*
X512904Y280609D01*
X515677Y278096D01*
X518682Y275867D01*
X521892Y273943D01*
X525275Y272343D01*
X528798Y271082D01*
X532428Y270173D01*
X536129Y269624D01*
X537162Y269573D01*
Y181735D01*
X533465D01*
X533465Y181735D01*
Y181735D01*
X533380Y181719D01*
X531827Y181596D01*
X530231Y181213D01*
X528713Y180585D01*
X527313Y179727D01*
X526064Y178660D01*
X524998Y177411D01*
X524140Y176011D01*
X523511Y174494D01*
X523128Y172897D01*
X522999Y171260D01*
X523128Y169623D01*
X523511Y168026D01*
X524140Y166509D01*
X524998Y165109D01*
X526064Y163860D01*
X527313Y162793D01*
X528713Y161935D01*
X530231Y161307D01*
X531827Y160923D01*
X533380Y160801D01*
X533465Y160784D01*
X537162D01*
Y72948D01*
X536130Y72897D01*
X532429Y72348D01*
X528798Y71439D01*
X525275Y70178D01*
X521892Y68578D01*
X518682Y66654D01*
X515676Y64425D01*
X512903Y61912D01*
X510390Y59139D01*
X508161Y56133D01*
X506237Y52923D01*
X504637Y49540D01*
X503376Y46016D01*
X502467Y42386D01*
X501918Y38685D01*
X501734Y34947D01*
X501755Y34530D01*
X501741Y34461D01*
Y3996D01*
X501729Y3937D01*
X501729Y3937D01*
X501473Y3043D01*
X501241Y2696D01*
X500672Y2315D01*
X500066Y2195D01*
X500000Y2208D01*
X210877D01*
X210117Y2785D01*
Y5844D01*
X206754D01*
Y6344D01*
X206254D01*
Y9903D01*
X203605D01*
Y10872D01*
X202191D01*
Y13780D01*
X203937D01*
Y13780D01*
X204919Y13735D01*
Y13546D01*
X212871D01*
Y14738D01*
X217270D01*
X217677Y14331D01*
Y4921D01*
X224764D01*
Y5890D01*
X225721D01*
Y9843D01*
Y13795D01*
X224764D01*
Y14764D01*
X224199Y15000D01*
X224097Y15771D01*
X223800Y16489D01*
X223326Y17106D01*
X220610Y19823D01*
X219993Y20296D01*
X219275Y20593D01*
X218504Y20695D01*
X212871D01*
Y27405D01*
X212768D01*
X212593Y28405D01*
X228748Y44559D01*
X229315Y45300D01*
X229673Y46162D01*
X229794Y47087D01*
Y54961D01*
Y67913D01*
X254764D01*
Y68882D01*
X255720D01*
Y72835D01*
Y76787D01*
X254764D01*
Y77756D01*
X254199D01*
Y90538D01*
X255084Y91424D01*
X266389D01*
X267160Y91525D01*
X267878Y91823D01*
X268495Y92296D01*
X280865Y104666D01*
X281338Y105283D01*
X281636Y106001D01*
X281737Y106772D01*
Y149573D01*
X292955Y160790D01*
X298948D01*
X299380Y160144D01*
X299799Y159724D01*
X299380Y159305D01*
X298593Y158128D01*
X298052Y156820D01*
X297776Y155432D01*
Y154017D01*
X298052Y152629D01*
X298593Y151321D01*
X299380Y150144D01*
X300380Y149143D01*
X301557Y148357D01*
X302865Y147816D01*
X304253Y147539D01*
X305668D01*
X306704Y147745D01*
X312855Y141595D01*
X313472Y141122D01*
X314190Y140824D01*
X314961Y140723D01*
X349160D01*
X353070Y136813D01*
Y43767D01*
X353172Y42996D01*
X353469Y42278D01*
X353942Y41661D01*
X361020Y34583D01*
X361020Y34583D01*
X361637Y34110D01*
X362355Y33812D01*
X363126Y33711D01*
X363126Y33711D01*
X409217D01*
X409987Y33812D01*
X410706Y34110D01*
X411323Y34583D01*
X419075Y42335D01*
X419075Y42335D01*
X419548Y42952D01*
X419845Y43670D01*
X419947Y44441D01*
Y81685D01*
X419845Y82456D01*
X419548Y83174D01*
X419075Y83791D01*
X416364Y86501D01*
Y102827D01*
X416364Y102827D01*
X416263Y103598D01*
X415965Y104316D01*
X415492Y104933D01*
X410878Y109547D01*
X410261Y110020D01*
X409543Y110318D01*
X408772Y110419D01*
X407520D01*
Y111260D01*
X399567D01*
Y111260D01*
X398933Y111054D01*
X397933Y111221D01*
Y111221D01*
X397767D01*
X397267Y112221D01*
X397528Y112568D01*
X398759D01*
X398895Y112586D01*
X399031Y112568D01*
X409199D01*
Y112165D01*
X417152D01*
Y118386D01*
Y124776D01*
Y126794D01*
X417600Y127608D01*
X431296D01*
Y127594D01*
X432823Y127745D01*
X434291Y128190D01*
X435644Y128913D01*
X436155Y129332D01*
X436904Y129842D01*
X437565Y129449D01*
X437567Y129448D01*
X437636Y129419D01*
X438247Y129166D01*
X438976Y129070D01*
X439706Y129166D01*
X440386Y129448D01*
X440970Y129896D01*
X441418Y130480D01*
X441700Y131160D01*
X441796Y131889D01*
X441804D01*
X441804Y131891D01*
X441674Y133213D01*
X441288Y134485D01*
X440662Y135658D01*
X439846Y136652D01*
X439843Y136674D01*
X439843Y136674D01*
X438523Y137757D01*
X437018Y138561D01*
X435385Y139057D01*
X433686Y139224D01*
X433686Y139221D01*
X432114Y139066D01*
X430603Y138608D01*
X430009Y138290D01*
X429871Y138233D01*
X429865Y138245D01*
X429722Y138186D01*
X428611Y137333D01*
X428259Y136875D01*
X427463Y136265D01*
X426584Y135900D01*
X417362D01*
X417152Y136847D01*
Y144231D01*
X416183D01*
Y146132D01*
X413175D01*
Y146632D01*
X412675D01*
Y149483D01*
X410167D01*
X409483Y150199D01*
Y151575D01*
X409347Y152603D01*
X408951Y153560D01*
X408320Y154383D01*
X407497Y155014D01*
X406540Y155411D01*
X405512Y155546D01*
X393701D01*
X392673Y155411D01*
X391715Y155014D01*
X390893Y154383D01*
X390262Y153560D01*
X389865Y152603D01*
X389730Y151575D01*
Y151197D01*
X388492D01*
Y147638D01*
Y144079D01*
X389730D01*
Y141732D01*
X389730Y141732D01*
X389865Y140705D01*
X390262Y139747D01*
X390893Y138924D01*
X394830Y134987D01*
X394830Y134987D01*
X395264Y134654D01*
Y130957D01*
Y125957D01*
X396232D01*
Y124705D01*
X404248D01*
Y125957D01*
X405217D01*
Y126385D01*
X409199D01*
Y124776D01*
Y119716D01*
X399854D01*
X399820Y119730D01*
X398895Y119852D01*
X397970Y119730D01*
X397936Y119716D01*
X396693D01*
Y120118D01*
X389473D01*
Y121221D01*
X389377Y121950D01*
X389095Y122630D01*
X388647Y123214D01*
X385663Y126198D01*
X385079Y126646D01*
X384399Y126928D01*
X383870Y126998D01*
Y130957D01*
Y135957D01*
Y142453D01*
X373917D01*
Y142024D01*
X373457D01*
X372727Y141928D01*
X372047Y141646D01*
X371463Y141198D01*
X367197Y136932D01*
X366273Y137315D01*
Y140642D01*
X366172Y141413D01*
X365874Y142131D01*
X365401Y142748D01*
X354590Y153559D01*
X353973Y154032D01*
X353255Y154330D01*
X352484Y154431D01*
X329466D01*
X321693Y162203D01*
X321870Y162629D01*
X322146Y164017D01*
Y165432D01*
X321870Y166820D01*
X321328Y168128D01*
X320542Y169305D01*
X320122Y169724D01*
X320542Y170144D01*
X321328Y171321D01*
X321710Y172244D01*
X321803Y172283D01*
X322387Y172731D01*
X332702Y183046D01*
X333150Y183630D01*
X333432Y184310D01*
X333528Y185039D01*
Y199620D01*
X337782Y203873D01*
X384881D01*
X385611Y203970D01*
X386291Y204251D01*
X386875Y204699D01*
X399328Y217152D01*
X400251Y216769D01*
Y212442D01*
X407283D01*
Y211413D01*
X415158D01*
Y211620D01*
X415732Y212382D01*
X416157Y212382D01*
X418201D01*
Y216138D01*
X418701D01*
Y216637D01*
X421669D01*
Y219893D01*
X419823D01*
X418898Y220075D01*
X418898Y220893D01*
Y227962D01*
X419159Y228302D01*
X419437Y228973D01*
X419479Y229291D01*
X421299D01*
Y233508D01*
X422099Y234122D01*
X422730Y234945D01*
X423127Y235903D01*
X423262Y236930D01*
Y249163D01*
X423127Y250191D01*
X422730Y251148D01*
X422099Y251971D01*
X421277Y252602D01*
X420319Y252998D01*
X419291Y253134D01*
X418520D01*
Y253420D01*
X414961D01*
X411402D01*
Y253134D01*
X408327D01*
X407300Y252998D01*
X406342Y252602D01*
X405519Y251971D01*
X404976Y251263D01*
X385390D01*
X385008Y252187D01*
X388117Y255296D01*
X388128Y255284D01*
X389743Y257125D01*
X391103Y259161D01*
X392186Y261358D01*
X392572Y262496D01*
X392986Y263495D01*
X393311Y264845D01*
X411614D01*
Y274491D01*
X411540D01*
Y276279D01*
X411445Y276999D01*
X411167Y277669D01*
X411128Y277720D01*
X411621Y278720D01*
X416929D01*
Y282441D01*
X424107D01*
Y284344D01*
X424436Y285224D01*
X449945D01*
Y285200D01*
X452368Y285391D01*
X454730Y285958D01*
X456975Y286888D01*
X459047Y288158D01*
X460895Y289736D01*
X460895Y289736D01*
X461585Y290459D01*
X469550Y298424D01*
X469573Y298454D01*
X470633Y299324D01*
X471876Y299989D01*
X472459Y300166D01*
X473323Y299382D01*
X473248Y299006D01*
Y297687D01*
X473505Y296394D01*
X474010Y295176D01*
X474742Y294080D01*
X475476Y293347D01*
X474742Y292613D01*
X474010Y291517D01*
X473505Y290299D01*
X473248Y289006D01*
Y287687D01*
X473505Y286394D01*
X474010Y285176D01*
X474742Y284080D01*
X475674Y283148D01*
X476771Y282415D01*
X477182Y282245D01*
X477293Y282025D01*
X477368Y281085D01*
X476935Y280653D01*
X476441Y279796D01*
X476187Y278846D01*
X479941D01*
Y278346D01*
X480441D01*
Y274592D01*
X481391Y274847D01*
X482247Y275341D01*
X482254Y275348D01*
X482491Y275325D01*
X483295Y274241D01*
X483248Y274006D01*
Y272687D01*
X483505Y271394D01*
X484010Y270176D01*
X484742Y269080D01*
X485674Y268148D01*
X486771Y267415D01*
X487989Y266911D01*
X489282Y266653D01*
X490600D01*
X491893Y266911D01*
X493111Y267415D01*
X494207Y268148D01*
X495140Y269080D01*
X495872Y270176D01*
X496377Y271394D01*
X496634Y272687D01*
Y274006D01*
X496377Y275299D01*
X495872Y276517D01*
X495140Y277613D01*
X494406Y278346D01*
X495140Y279080D01*
X495872Y280176D01*
X496377Y281394D01*
X496634Y282687D01*
Y284006D01*
X496377Y285299D01*
X495872Y286517D01*
X495140Y287613D01*
X494406Y288347D01*
X495140Y289080D01*
X495872Y290176D01*
X496377Y291394D01*
X496634Y292687D01*
Y294006D01*
X496377Y295299D01*
X495872Y296517D01*
X495140Y297613D01*
X494406Y298346D01*
X495140Y299080D01*
X495872Y300176D01*
X496377Y301394D01*
X496634Y302687D01*
Y304006D01*
X496377Y305299D01*
X495872Y306517D01*
X495140Y307613D01*
X494207Y308545D01*
X493111Y309278D01*
X491893Y309782D01*
X490600Y310039D01*
X489282D01*
X487989Y309782D01*
X487536Y309595D01*
X486395Y310205D01*
X486377Y310299D01*
X485872Y311517D01*
X485140Y312613D01*
X484207Y313545D01*
X483111Y314278D01*
X481893Y314782D01*
X480600Y315039D01*
X479282D01*
X477989Y314782D01*
X476771Y314278D01*
X475674Y313545D01*
X474742Y312613D01*
X474010Y311517D01*
X473712Y310798D01*
X472185Y310431D01*
X469938Y309501D01*
X467865Y308230D01*
X466016Y306651D01*
X466016Y306651D01*
X465325Y305927D01*
X455018Y295619D01*
X454995Y295589D01*
X453935Y294719D01*
X452692Y294055D01*
X451343Y293646D01*
X449978Y293511D01*
X449940Y293516D01*
X424436D01*
X424107Y294396D01*
Y296299D01*
X416154D01*
X415961Y297219D01*
Y299051D01*
X412902D01*
Y296870D01*
X412402D01*
Y296370D01*
X408843D01*
Y295020D01*
X407874D01*
Y288720D01*
Y282563D01*
X406970Y282172D01*
X406323Y282700D01*
Y289011D01*
X406228Y289731D01*
X405951Y290401D01*
X405509Y290977D01*
X397650Y298836D01*
X397074Y299277D01*
X396404Y299555D01*
X395684Y299650D01*
X395276D01*
Y300020D01*
X386221D01*
Y293721D01*
X387189D01*
Y292370D01*
X390748D01*
X394307D01*
Y292902D01*
X395307Y293316D01*
X400764Y287860D01*
Y285112D01*
X400274Y284767D01*
X399764Y284568D01*
X399236Y284787D01*
X398517Y284881D01*
X395276D01*
Y290020D01*
X394307D01*
Y291370D01*
X390748D01*
X387189D01*
Y290020D01*
X386221D01*
Y289911D01*
X385221Y289681D01*
X384437Y289961D01*
Y289961D01*
X383469Y290037D01*
Y292610D01*
X379910D01*
X376351D01*
Y289961D01*
X375382D01*
Y289404D01*
X374016D01*
X372988Y289269D01*
X372030Y288872D01*
X371208Y288241D01*
X370577Y287419D01*
X370180Y286461D01*
X370045Y285433D01*
X370180Y284405D01*
X370577Y283448D01*
X371208Y282625D01*
X372030Y281994D01*
X372988Y281597D01*
X374016Y281462D01*
X375382D01*
Y281299D01*
X384437D01*
Y282556D01*
X385333Y282981D01*
X386221Y282511D01*
Y278720D01*
X395276D01*
Y279322D01*
X397365D01*
X401272Y275415D01*
X400889Y274491D01*
X385433D01*
Y273523D01*
X383843D01*
Y265814D01*
X383843Y265814D01*
X383843D01*
X384226Y264973D01*
X384227Y264814D01*
X383024Y263827D01*
X381512Y263019D01*
X379872Y262521D01*
X378685Y262404D01*
X378490Y262876D01*
X377731Y264012D01*
X376765Y264978D01*
X375628Y265737D01*
X374366Y266260D01*
X373026Y266527D01*
X371659D01*
X370319Y266260D01*
X369057Y265737D01*
X367921Y264978D01*
X366954Y264012D01*
X366195Y262876D01*
X365985Y262369D01*
X361993D01*
Y263889D01*
X361024D01*
Y266538D01*
X357465D01*
X353906D01*
Y263889D01*
X352938D01*
Y255227D01*
X361993D01*
Y256810D01*
X365985D01*
X366195Y256304D01*
X366954Y255168D01*
X367921Y254201D01*
X369057Y253442D01*
X370319Y252919D01*
X371659Y252653D01*
X373026D01*
X374366Y252919D01*
X375628Y253442D01*
X376765Y254201D01*
X377731Y255168D01*
X378490Y256304D01*
X378709Y256832D01*
X380405Y256966D01*
X380613Y257016D01*
X381102Y256143D01*
X372552Y247593D01*
X372534Y247611D01*
X372290Y247314D01*
X371659D01*
X370319Y247047D01*
X369057Y246525D01*
X367921Y245765D01*
X366954Y244799D01*
X366195Y243663D01*
X365985Y243157D01*
X361993D01*
Y244598D01*
X352938D01*
Y235937D01*
X353906D01*
Y233287D01*
X361024D01*
Y235937D01*
X361993D01*
Y237597D01*
X365985D01*
X366195Y237091D01*
X366954Y235955D01*
X367921Y234989D01*
X369057Y234229D01*
X370319Y233707D01*
X371659Y233440D01*
X373026D01*
X374366Y233707D01*
X375628Y234229D01*
X376765Y234989D01*
X377731Y235955D01*
X378490Y237091D01*
X379013Y238353D01*
X379280Y239694D01*
Y241060D01*
X379013Y242401D01*
X378490Y243663D01*
X377731Y244799D01*
X377675Y244855D01*
X381950Y249130D01*
X382874Y248747D01*
Y241617D01*
X388027D01*
Y235446D01*
X376708Y224127D01*
X329762D01*
X327170Y226718D01*
X326587Y227166D01*
X325907Y227448D01*
X325177Y227544D01*
X321570D01*
X321328Y228128D01*
X320542Y229305D01*
X319541Y230305D01*
X318595Y230937D01*
X318314Y231967D01*
X318388Y232164D01*
X318919Y233085D01*
X319209Y234165D01*
Y234224D01*
X314961D01*
Y234724D01*
X314461D01*
Y238972D01*
X314401D01*
X313321Y238683D01*
X313146Y238582D01*
X312146Y239159D01*
Y240290D01*
X313146Y240867D01*
X313321Y240766D01*
X314401Y240476D01*
X314461D01*
Y244724D01*
Y248972D01*
X314401D01*
X313321Y248683D01*
X313146Y248582D01*
X312146Y249159D01*
Y251909D01*
X297776D01*
Y237539D01*
X297776Y237539D01*
X297996Y236539D01*
X297776Y235432D01*
Y234017D01*
X298052Y232629D01*
X298593Y231321D01*
X299380Y230144D01*
X299799Y229724D01*
X299380Y229305D01*
X298593Y228128D01*
X298052Y226820D01*
X297776Y225432D01*
Y224017D01*
X298052Y222629D01*
X298593Y221321D01*
X299380Y220144D01*
X299799Y219724D01*
X299380Y219305D01*
X298593Y218128D01*
X298417Y217703D01*
X285591D01*
X285591Y217703D01*
X284820Y217601D01*
X284101Y217304D01*
X283485Y216830D01*
X269548Y202893D01*
X269074Y202276D01*
X268777Y201558D01*
X268675Y200787D01*
Y171988D01*
X237174Y140487D01*
X216249D01*
X216248Y140487D01*
X215478Y140385D01*
X214759Y140088D01*
X214143Y139614D01*
X214142Y139614D01*
X206556Y132027D01*
X206082Y131410D01*
X205785Y130692D01*
X205683Y129921D01*
Y54383D01*
X194619Y43319D01*
X194146Y42702D01*
X193848Y41984D01*
X193746Y41213D01*
Y32776D01*
X186685D01*
Y25394D01*
X185827D01*
Y17520D01*
X186033D01*
X186795Y16945D01*
X186795Y16520D01*
Y14476D01*
X190551D01*
Y13976D01*
X191051D01*
Y11008D01*
X194000D01*
X194351Y10957D01*
X194943Y10271D01*
Y2208D01*
X39370D01*
X39304Y2195D01*
X38698Y2315D01*
X38129Y2696D01*
X37897Y3043D01*
X37641Y3937D01*
X37629Y4932D01*
Y34461D01*
X37615Y34530D01*
X37636Y34947D01*
X37452Y38685D01*
X36903Y42386D01*
X35994Y46016D01*
X34733Y49540D01*
X33133Y52923D01*
X31209Y56133D01*
X28980Y59139D01*
X26467Y61912D01*
X23694Y64425D01*
X20688Y66654D01*
X17478Y68578D01*
X14095Y70178D01*
X10572Y71439D01*
X6942Y72348D01*
X3240Y72897D01*
X2208Y72948D01*
Y160784D01*
X5906D01*
X5906Y160784D01*
Y160784D01*
X5990Y160801D01*
X7543Y160923D01*
X9139Y161307D01*
X10657Y161935D01*
X12057Y162793D01*
X13306Y163860D01*
X14372Y165109D01*
X15230Y166509D01*
X15859Y168026D01*
X16242Y169623D01*
X16371Y171260D01*
X16242Y172897D01*
X15859Y174494D01*
X15230Y176011D01*
X14372Y177411D01*
X13306Y178660D01*
X12057Y179727D01*
X10657Y180585D01*
X9139Y181213D01*
X7543Y181596D01*
X5990Y181719D01*
X5906Y181735D01*
X2196D01*
Y269571D01*
X3240Y269623D01*
X6942Y270172D01*
X10572Y271081D01*
X14095Y272342D01*
X17478Y273942D01*
X20688Y275866D01*
X23694Y278095D01*
X26467Y280608D01*
X28980Y283381D01*
X31209Y286387D01*
X33133Y289597D01*
X34733Y292980D01*
X35994Y296503D01*
X36903Y300133D01*
X37452Y303835D01*
X37636Y307573D01*
X37615Y307990D01*
X37629Y308059D01*
Y338523D01*
X37641Y338583D01*
X37641Y338583D01*
X37897Y339477D01*
X38129Y339824D01*
X38698Y340205D01*
X39304Y340325D01*
X39370Y340312D01*
D02*
G37*
G36*
X419291Y236930D02*
X408327D01*
Y249163D01*
X419291D01*
Y236930D01*
D02*
G37*
G36*
X405512Y137795D02*
X397638D01*
X393701Y141732D01*
Y151575D01*
X405512D01*
Y137795D01*
D02*
G37*
G36*
X259915Y153497D02*
Y113484D01*
X259127Y112696D01*
X243576D01*
X242806Y112595D01*
X242087Y112297D01*
X241470Y111824D01*
X230912Y101266D01*
X229912Y101680D01*
Y118117D01*
X230731Y118664D01*
X231690Y119624D01*
X232444Y120752D01*
X232964Y122006D01*
X233228Y123337D01*
Y124694D01*
X232964Y126025D01*
X232444Y127279D01*
X231690Y128408D01*
X230731Y129367D01*
X229602Y130121D01*
X228348Y130641D01*
X227017Y130905D01*
X225660D01*
X224329Y130641D01*
X223075Y130121D01*
X221947Y129367D01*
X220987Y128408D01*
X220233Y127279D01*
X219714Y126025D01*
X219449Y124694D01*
Y123337D01*
X219714Y122006D01*
X220233Y120752D01*
X220987Y119624D01*
X221947Y118664D01*
X222765Y118117D01*
Y97047D01*
X221614D01*
Y96079D01*
X218965D01*
Y92520D01*
X218465D01*
Y92020D01*
X215102D01*
Y88961D01*
X215102D01*
Y88205D01*
X215102D01*
Y85146D01*
X218465D01*
Y84646D01*
X218965D01*
Y81087D01*
X221614D01*
Y80118D01*
X222647D01*
Y76787D01*
X221721D01*
Y72835D01*
Y68882D01*
X222647D01*
Y54961D01*
Y48567D01*
X206368Y32288D01*
X205800Y31548D01*
X205443Y30686D01*
X205321Y29761D01*
Y27405D01*
X204919D01*
Y21698D01*
X203937Y21654D01*
Y21654D01*
X195276D01*
Y24823D01*
X200544D01*
Y32776D01*
X199703D01*
Y39979D01*
X210767Y51044D01*
X210767Y51044D01*
X211241Y51661D01*
X211538Y52379D01*
X211640Y53150D01*
X211640Y53150D01*
Y128688D01*
X217482Y134530D01*
X238407D01*
X239178Y134632D01*
X239897Y134929D01*
X240513Y135402D01*
X258991Y153880D01*
X259915Y153497D01*
D02*
G37*
%LPC*%
G36*
X467802Y330512D02*
X466096D01*
X464422Y330179D01*
X462846Y329526D01*
X461427Y328578D01*
X460221Y327372D01*
X459273Y325953D01*
X458620Y324377D01*
X458610Y324324D01*
X457747Y323819D01*
X457476Y323907D01*
X455793Y324173D01*
X454089D01*
X452406Y323907D01*
X452135Y323819D01*
X451272Y324324D01*
X451262Y324377D01*
X450609Y325953D01*
X449661Y327372D01*
X448454Y328578D01*
X447036Y329526D01*
X445460Y330179D01*
X443786Y330512D01*
X442080D01*
X440407Y330179D01*
X438830Y329526D01*
X437412Y328578D01*
X436618Y327784D01*
X414483D01*
X413359Y328250D01*
X412073Y328506D01*
X410762D01*
X409476Y328250D01*
X408265Y327748D01*
X407175Y327020D01*
X406248Y326093D01*
X405519Y325003D01*
X405018Y323792D01*
X404762Y322506D01*
Y321195D01*
X405018Y319909D01*
X405519Y318698D01*
X406248Y317608D01*
X407175Y316681D01*
X408265Y315952D01*
X409476Y315451D01*
X410762Y315195D01*
X412073D01*
X413359Y315451D01*
X414483Y315916D01*
X436618D01*
X437412Y315123D01*
X438830Y314175D01*
X440407Y313522D01*
X442080Y313189D01*
X443786D01*
X444154Y312243D01*
X444381Y310811D01*
X444907Y309190D01*
X445681Y307672D01*
X446683Y306293D01*
X447888Y305088D01*
X449266Y304087D01*
X450785Y303313D01*
X452406Y302786D01*
X454089Y302520D01*
X455793D01*
X457476Y302786D01*
X459097Y303313D01*
X460615Y304087D01*
X461994Y305088D01*
X463199Y306293D01*
X464201Y307672D01*
X464974Y309190D01*
X465501Y310811D01*
X465728Y312243D01*
X466096Y313189D01*
X467802D01*
X469475Y313522D01*
X471052Y314175D01*
X472470Y315123D01*
X473677Y316329D01*
X474624Y317748D01*
X475277Y319324D01*
X475610Y320997D01*
Y322704D01*
X475277Y324377D01*
X474624Y325953D01*
X473677Y327372D01*
X472470Y328578D01*
X471052Y329526D01*
X469475Y330179D01*
X467802Y330512D01*
D02*
G37*
G36*
X372547Y325566D02*
Y322350D01*
X375763D01*
X375512Y323286D01*
X375023Y324134D01*
X374330Y324826D01*
X373482Y325315D01*
X372547Y325566D01*
D02*
G37*
G36*
X371547Y325566D02*
X370612Y325315D01*
X369764Y324826D01*
X369072Y324134D01*
X368582Y323286D01*
X368332Y322350D01*
X371547D01*
Y325566D01*
D02*
G37*
G36*
Y321350D02*
X368332D01*
X368582Y320415D01*
X369072Y319567D01*
X369764Y318875D01*
X370612Y318385D01*
X371547Y318135D01*
Y321350D01*
D02*
G37*
G36*
X375763D02*
X372547D01*
Y318135D01*
X373482Y318385D01*
X374330Y318875D01*
X375023Y319567D01*
X375512Y320415D01*
X375763Y321350D01*
D02*
G37*
G36*
X99656Y323141D02*
X94825D01*
Y314177D01*
X99656D01*
Y323141D01*
D02*
G37*
G36*
X93825D02*
X88995D01*
Y314177D01*
X93825D01*
Y323141D01*
D02*
G37*
G36*
X308287Y310397D02*
X306873Y310258D01*
X305514Y309845D01*
X304261Y309176D01*
X303163Y308274D01*
X302261Y307176D01*
X301807Y306326D01*
X300807Y306577D01*
Y310236D01*
X282697D01*
Y296063D01*
X288972D01*
Y292903D01*
X280641Y284572D01*
X277539D01*
Y286123D01*
X276571D01*
Y288772D01*
X273012D01*
Y289272D01*
X272512D01*
Y292635D01*
X266571D01*
Y289272D01*
X265571D01*
Y292635D01*
X262512D01*
Y291730D01*
X260193D01*
Y288880D01*
X259693D01*
Y288380D01*
X256685D01*
Y286478D01*
X255717D01*
Y278840D01*
X256913D01*
Y276458D01*
X257008Y275739D01*
X257286Y275068D01*
X257727Y274492D01*
X259449Y272771D01*
Y266535D01*
Y261811D01*
X259449D01*
X259305Y260871D01*
X257729Y259295D01*
X257287Y258719D01*
X257009Y258049D01*
X256915Y257329D01*
Y257234D01*
X255717D01*
Y250769D01*
X254296D01*
X254050Y250736D01*
X213698D01*
X212773Y250614D01*
X211911Y250257D01*
X211171Y249689D01*
X182512Y221031D01*
X181944Y220291D01*
X181587Y219429D01*
X181465Y218504D01*
Y192756D01*
X178701D01*
Y180079D01*
X177984Y179396D01*
X164999D01*
X164999Y179396D01*
X164228Y179294D01*
X163510Y178997D01*
X162893Y178523D01*
X162893Y178523D01*
X145375Y161005D01*
X144902Y160388D01*
X144604Y159670D01*
X144503Y158899D01*
Y139205D01*
X141786Y136488D01*
X130323D01*
X125906Y140904D01*
X126082Y141329D01*
X126358Y142718D01*
Y144133D01*
X126082Y145521D01*
X125540Y146829D01*
X124754Y148005D01*
X123753Y149006D01*
X122577Y149793D01*
X121269Y150334D01*
X119881Y150610D01*
X118466D01*
X117358Y150390D01*
X116358Y150610D01*
Y150610D01*
X101988D01*
Y140452D01*
X98420Y136884D01*
X57052D01*
X49392Y144544D01*
X49402Y144568D01*
X49646Y145793D01*
Y147042D01*
X49402Y148266D01*
X48924Y149420D01*
X48231Y150458D01*
X47348Y151341D01*
X46310Y152034D01*
X45267Y152466D01*
X45146Y152833D01*
X45124Y153538D01*
X45396Y153695D01*
X46029Y154329D01*
X46477Y155104D01*
X46695Y155917D01*
X43307D01*
X39919D01*
X40137Y155104D01*
X40585Y154329D01*
X41219Y153695D01*
X41491Y153538D01*
X41468Y152833D01*
X41347Y152466D01*
X40305Y152034D01*
X39266Y151341D01*
X38384Y150458D01*
X37982Y149857D01*
X37950Y149841D01*
X36853D01*
X36821Y149857D01*
X36419Y150458D01*
X35537Y151341D01*
X34499Y152034D01*
X33456Y152466D01*
X33335Y152833D01*
X33313Y153538D01*
X33585Y153695D01*
X34218Y154329D01*
X34666Y155104D01*
X34884Y155917D01*
X31496D01*
X28109D01*
X28326Y155104D01*
X28774Y154329D01*
X29407Y153695D01*
X29680Y153538D01*
X29657Y152833D01*
X29536Y152466D01*
X28494Y152034D01*
X27455Y151341D01*
X26573Y150458D01*
X25879Y149420D01*
X25401Y148266D01*
X25157Y147042D01*
Y145793D01*
X25401Y144568D01*
X25879Y143415D01*
X26573Y142377D01*
X26851Y142099D01*
X27394Y141417D01*
X26851Y140736D01*
X26573Y140458D01*
X25879Y139420D01*
X25401Y138266D01*
X25157Y137042D01*
Y135793D01*
X25401Y134568D01*
X25879Y133415D01*
X26573Y132377D01*
X27455Y131494D01*
X28494Y130800D01*
X28581Y130764D01*
X28383Y129764D01*
X25157D01*
Y117087D01*
X25231D01*
X25738Y116087D01*
X25401Y115274D01*
X25157Y114049D01*
Y112801D01*
X25401Y111576D01*
X25879Y110423D01*
X26573Y109385D01*
X26851Y109107D01*
X27394Y108425D01*
X26851Y107744D01*
X26573Y107466D01*
X25879Y106428D01*
X25401Y105274D01*
X25157Y104050D01*
Y102801D01*
X25401Y101576D01*
X25879Y100423D01*
X26573Y99385D01*
X26851Y99107D01*
X27394Y98425D01*
X26851Y97744D01*
X26573Y97466D01*
X25879Y96428D01*
X25401Y95274D01*
X25157Y94050D01*
Y92801D01*
X25401Y91576D01*
X25879Y90423D01*
X26573Y89385D01*
X26851Y89107D01*
X27394Y88425D01*
X26851Y87744D01*
X26573Y87466D01*
X25879Y86428D01*
X25401Y85274D01*
X25157Y84049D01*
Y82801D01*
X25401Y81576D01*
X25879Y80423D01*
X26573Y79385D01*
X27455Y78502D01*
X28494Y77808D01*
X29536Y77376D01*
X29657Y77009D01*
X29680Y76304D01*
X29407Y76147D01*
X28774Y75514D01*
X28326Y74738D01*
X28109Y73925D01*
X31496D01*
X34884D01*
X34666Y74738D01*
X34654Y74759D01*
X35228Y75380D01*
X36049Y75218D01*
X36060Y75213D01*
X36096Y75209D01*
X36183Y75192D01*
X36999Y74200D01*
X36968Y74050D01*
Y72801D01*
X37212Y71576D01*
X37690Y70423D01*
X38384Y69385D01*
X39266Y68502D01*
X40305Y67808D01*
X41458Y67330D01*
X42683Y67087D01*
X43931D01*
X45156Y67330D01*
X46310Y67808D01*
X47348Y68502D01*
X48231Y69385D01*
X48924Y70423D01*
X49169Y71015D01*
X50326Y71272D01*
X67614Y53984D01*
X67614Y53984D01*
X68231Y53511D01*
X68949Y53214D01*
X69720Y53112D01*
X101988D01*
Y52718D01*
X102264Y51329D01*
X102806Y50022D01*
X103592Y48845D01*
X104593Y47844D01*
X105770Y47058D01*
X107077Y46516D01*
X108466Y46240D01*
X109881D01*
X111269Y46516D01*
X112577Y47058D01*
X113753Y47844D01*
X114173Y48264D01*
X114593Y47844D01*
X115770Y47058D01*
X117077Y46516D01*
X118466Y46240D01*
X119881D01*
X121269Y46516D01*
X122577Y47058D01*
X123753Y47844D01*
X124754Y48845D01*
X125540Y50022D01*
X126082Y51329D01*
X126358Y52718D01*
Y52731D01*
X154134D01*
X154905Y52832D01*
X155623Y53130D01*
X156240Y53603D01*
X177928Y75291D01*
X178850Y74799D01*
X178701Y74050D01*
Y72801D01*
X178944Y71576D01*
X179422Y70423D01*
X180116Y69385D01*
X180999Y68502D01*
X182037Y67808D01*
X183191Y67330D01*
X184415Y67087D01*
X185664D01*
X186888Y67330D01*
X188042Y67808D01*
X189080Y68502D01*
X189963Y69385D01*
X190657Y70423D01*
X191134Y71576D01*
X191378Y72801D01*
Y74050D01*
X191134Y75274D01*
X190657Y76428D01*
X189963Y77466D01*
X189685Y77744D01*
X189141Y78425D01*
X189685Y79106D01*
X189963Y79385D01*
X190364Y79985D01*
X190396Y80001D01*
X191493D01*
X191526Y79985D01*
X191927Y79385D01*
X192810Y78502D01*
X193848Y77808D01*
X194890Y77376D01*
X195012Y77009D01*
X195034Y76304D01*
X194762Y76147D01*
X194129Y75514D01*
X193681Y74738D01*
X193463Y73925D01*
X196850D01*
X200238D01*
X200020Y74738D01*
X199572Y75514D01*
X198939Y76147D01*
X198667Y76304D01*
X198689Y77009D01*
X198810Y77376D01*
X199853Y77808D01*
X200891Y78502D01*
X201774Y79385D01*
X202468Y80423D01*
X202945Y81576D01*
X203189Y82801D01*
Y84049D01*
X202945Y85274D01*
X202468Y86428D01*
X201774Y87466D01*
X201496Y87744D01*
X200952Y88425D01*
X201496Y89107D01*
X201774Y89385D01*
X202468Y90423D01*
X202945Y91576D01*
X203189Y92801D01*
Y94050D01*
X202945Y95274D01*
X202468Y96428D01*
X201774Y97466D01*
X201496Y97744D01*
X200952Y98425D01*
X201496Y99107D01*
X201774Y99385D01*
X202468Y100423D01*
X202945Y101576D01*
X203189Y102801D01*
Y104050D01*
X202945Y105274D01*
X202468Y106428D01*
X201774Y107466D01*
X201496Y107744D01*
X200952Y108425D01*
X201496Y109107D01*
X201774Y109385D01*
X202468Y110423D01*
X202945Y111576D01*
X203189Y112801D01*
Y114049D01*
X202945Y115274D01*
X202609Y116087D01*
X203115Y117087D01*
X203189D01*
Y129764D01*
X199964D01*
X199765Y130764D01*
X199853Y130800D01*
X200891Y131494D01*
X201774Y132377D01*
X202468Y133415D01*
X202945Y134568D01*
X203189Y135793D01*
Y137042D01*
X202945Y138266D01*
X202468Y139420D01*
X201774Y140458D01*
X201496Y140736D01*
X200952Y141417D01*
X201496Y142099D01*
X201774Y142377D01*
X202468Y143415D01*
X202945Y144568D01*
X203189Y145793D01*
Y147042D01*
X202945Y148266D01*
X202468Y149420D01*
X201774Y150458D01*
X201496Y150736D01*
X200952Y151417D01*
X201496Y152099D01*
X201774Y152377D01*
X202468Y153415D01*
X202945Y154568D01*
X203189Y155793D01*
Y157042D01*
X202945Y158266D01*
X202468Y159420D01*
X201774Y160458D01*
X201496Y160736D01*
X200952Y161417D01*
X201496Y162099D01*
X201774Y162377D01*
X202468Y163415D01*
X202945Y164568D01*
X203189Y165793D01*
Y167042D01*
X202945Y168266D01*
X202468Y169420D01*
X201774Y170458D01*
X201496Y170736D01*
X200952Y171417D01*
X201496Y172099D01*
X201774Y172377D01*
X202468Y173415D01*
X202945Y174568D01*
X203189Y175793D01*
Y177042D01*
X202945Y178266D01*
X202468Y179420D01*
X201774Y180458D01*
X201677Y180555D01*
X202243Y181403D01*
X202724Y181204D01*
X203752Y181068D01*
X262795D01*
X263823Y181204D01*
X264781Y181600D01*
X265603Y182231D01*
X266234Y183054D01*
X266631Y184012D01*
X266766Y185039D01*
Y224410D01*
X266631Y225437D01*
X266234Y226395D01*
X265603Y227217D01*
X264781Y227848D01*
X263823Y228245D01*
X262795Y228380D01*
X203752D01*
X202724Y228245D01*
X201766Y227848D01*
X200944Y227217D01*
X200313Y226395D01*
X199916Y225437D01*
X199781Y224410D01*
Y189819D01*
X197350D01*
Y186417D01*
X196850D01*
Y185917D01*
X193449D01*
Y183016D01*
X193604D01*
X193848Y182035D01*
X192810Y181341D01*
X192378Y180909D01*
X191378Y181323D01*
Y192756D01*
X188613D01*
Y217024D01*
X215178Y243588D01*
X254264D01*
X254510Y243621D01*
X255717D01*
Y243376D01*
X276988D01*
Y249596D01*
Y257234D01*
X276988D01*
X276331Y258234D01*
X276374Y258561D01*
Y260890D01*
X276279Y261609D01*
X276002Y262279D01*
X275984Y262302D01*
Y268898D01*
X275016D01*
Y269579D01*
X273031D01*
Y270579D01*
X275016D01*
Y272654D01*
X274742D01*
X274359Y273577D01*
X274977Y274196D01*
X275419Y274772D01*
X275697Y275442D01*
X275792Y276161D01*
Y277461D01*
X277539D01*
Y279012D01*
X281792D01*
X282511Y279107D01*
X283182Y279385D01*
X283758Y279826D01*
X293718Y289787D01*
X294159Y290362D01*
X294437Y291033D01*
X294532Y291752D01*
Y296063D01*
X300807D01*
Y299723D01*
X301807Y299973D01*
X302261Y299123D01*
X303163Y298025D01*
X304261Y297124D01*
X305514Y296454D01*
X306873Y296041D01*
X308287Y295902D01*
X309701Y296041D01*
X311061Y296454D01*
X312314Y297124D01*
X313412Y298025D01*
X314314Y299123D01*
X314983Y300376D01*
X315396Y301736D01*
X315535Y303150D01*
X315396Y304563D01*
X314983Y305923D01*
X314314Y307176D01*
X313412Y308274D01*
X312314Y309176D01*
X311061Y309845D01*
X309701Y310258D01*
X308287Y310397D01*
D02*
G37*
G36*
X99656Y313177D02*
X94825D01*
Y304212D01*
X99656D01*
Y313177D01*
D02*
G37*
G36*
X93825D02*
X88995D01*
Y304212D01*
X93825D01*
Y313177D01*
D02*
G37*
G36*
X362004Y309268D02*
X354417D01*
Y303650D01*
X362004D01*
Y309268D01*
D02*
G37*
G36*
X411902Y299051D02*
X408843D01*
Y297370D01*
X411902D01*
Y299051D01*
D02*
G37*
G36*
X362004Y302650D02*
X354417D01*
Y297031D01*
X362004D01*
Y302650D01*
D02*
G37*
G36*
X337776Y310397D02*
X336362Y310258D01*
X335002Y309845D01*
X333749Y309176D01*
X332651Y308274D01*
X331750Y307176D01*
X331080Y305923D01*
X330667Y304563D01*
X330528Y303150D01*
X330667Y301736D01*
X331080Y300376D01*
X331750Y299123D01*
X332651Y298025D01*
X333749Y297124D01*
X335002Y296454D01*
X336362Y296041D01*
X337776Y295902D01*
X339190Y296041D01*
X340549Y296454D01*
X341802Y297124D01*
X342900Y298025D01*
X343802Y299123D01*
X344471Y300376D01*
X344831Y301561D01*
X345831Y301412D01*
Y297031D01*
X353417D01*
Y303150D01*
Y309268D01*
X345831D01*
Y304887D01*
X344831Y304739D01*
X344471Y305923D01*
X343802Y307176D01*
X342900Y308274D01*
X341802Y309176D01*
X340549Y309845D01*
X339190Y310258D01*
X337776Y310397D01*
D02*
G37*
G36*
X383469Y296472D02*
X380410D01*
Y293610D01*
X383469D01*
Y296472D01*
D02*
G37*
G36*
X379410D02*
X376351D01*
Y293610D01*
X379410D01*
Y296472D01*
D02*
G37*
G36*
X276571Y292635D02*
X273512D01*
Y289772D01*
X276571D01*
Y292635D01*
D02*
G37*
G36*
X259193Y291730D02*
X256685D01*
Y289380D01*
X259193D01*
Y291730D01*
D02*
G37*
G36*
X157480Y328774D02*
X114173D01*
X113145Y328639D01*
X112188Y328242D01*
X111365Y327611D01*
X110734Y326789D01*
X110338Y325831D01*
X110202Y324803D01*
Y288911D01*
X109202Y288501D01*
X107167Y290535D01*
X106551Y291009D01*
X105832Y291306D01*
X105062Y291408D01*
X101884D01*
Y298311D01*
X88026D01*
Y297313D01*
X86602D01*
X85832Y297212D01*
X85113Y296914D01*
X84496Y296441D01*
X84496Y296441D01*
X84403Y296348D01*
X83930Y295731D01*
X83632Y295013D01*
X83531Y294242D01*
X83632Y293471D01*
X83930Y292753D01*
X84403Y292136D01*
X85020Y291663D01*
X85738Y291365D01*
X86509Y291264D01*
X87026Y291332D01*
X88026Y290810D01*
Y290359D01*
X88995D01*
Y288930D01*
X91845D01*
Y288430D01*
X92345D01*
Y285422D01*
X94247D01*
Y284453D01*
X101884D01*
Y285451D01*
X103828D01*
X104408Y284872D01*
Y273830D01*
X104049Y272979D01*
X103081D01*
Y275097D01*
X97829D01*
X92577D01*
Y272979D01*
X91608D01*
Y264829D01*
Y258136D01*
Y255940D01*
X62992D01*
X61964Y255804D01*
X61007Y255408D01*
X60184Y254776D01*
X59553Y253954D01*
X59157Y252996D01*
X59021Y251969D01*
Y249118D01*
X58021Y248750D01*
X57545Y249226D01*
X56644Y249746D01*
X55638Y250016D01*
X55618D01*
Y246063D01*
X55118D01*
D01*
X55618D01*
Y242110D01*
X55638D01*
X56644Y242380D01*
X57545Y242900D01*
X58021Y243376D01*
X59021Y243008D01*
Y240191D01*
X25591D01*
X24563Y240056D01*
X23605Y239659D01*
X22783Y239028D01*
X22152Y238206D01*
X21755Y237248D01*
X21620Y236221D01*
Y216535D01*
X21749Y215551D01*
X21620Y214567D01*
Y171260D01*
X21755Y170232D01*
X22152Y169274D01*
X22783Y168452D01*
X23605Y167821D01*
X24563Y167424D01*
X25591Y167289D01*
X27769D01*
X28054Y166917D01*
X31496D01*
X34938D01*
X35223Y167289D01*
X39580D01*
X39865Y166917D01*
X43307D01*
Y166417D01*
D01*
Y166917D01*
X46749D01*
X47034Y167289D01*
X49185D01*
Y166339D01*
X49320Y165311D01*
X49717Y164353D01*
X50348Y163531D01*
X51170Y162900D01*
X52128Y162503D01*
X53155Y162368D01*
X112199D01*
X113227Y162503D01*
X114184Y162900D01*
X115007Y163531D01*
X115638Y164353D01*
X116034Y165311D01*
X116170Y166339D01*
Y205709D01*
X116034Y206736D01*
X115638Y207694D01*
X115007Y208517D01*
X114184Y209148D01*
X113227Y209544D01*
X112199Y209680D01*
X53184D01*
Y212564D01*
X76772D01*
X77799Y212700D01*
X78757Y213096D01*
X79580Y213727D01*
X80211Y214550D01*
X80607Y215508D01*
X80743Y216535D01*
Y218043D01*
X82761D01*
Y221405D01*
X83761D01*
Y218043D01*
X86821D01*
Y218043D01*
X86889D01*
Y218043D01*
X89948D01*
Y221405D01*
X90448D01*
Y221905D01*
X94007D01*
Y222407D01*
X102362D01*
X103390Y222542D01*
X104348Y222939D01*
X105170Y223570D01*
X105801Y224393D01*
X105912Y224660D01*
X111026D01*
Y233716D01*
X109674D01*
Y236150D01*
X110674Y236349D01*
X110734Y236204D01*
X111365Y235381D01*
X112188Y234750D01*
X113145Y234353D01*
X114173Y234218D01*
X157480D01*
X158508Y234353D01*
X159466Y234750D01*
X160288Y235381D01*
X160919Y236204D01*
X161316Y237161D01*
X161451Y238189D01*
Y324803D01*
X161316Y325831D01*
X160919Y326789D01*
X160288Y327611D01*
X159466Y328242D01*
X158508Y328639D01*
X157480Y328774D01*
D02*
G37*
G36*
X91345Y287930D02*
X88995D01*
Y285422D01*
X91345D01*
Y287930D01*
D02*
G37*
G36*
X215125Y328774D02*
X167323D01*
X166295Y328639D01*
X165337Y328242D01*
X164515Y327611D01*
X163884Y326789D01*
X163487Y325831D01*
X163352Y324803D01*
Y270854D01*
X163487Y269826D01*
X163884Y268868D01*
X164515Y268046D01*
X165337Y267415D01*
X166295Y267018D01*
X167323Y266883D01*
X179295D01*
X180053Y266732D01*
X181410D01*
X182168Y266883D01*
X195212D01*
Y266248D01*
X202330D01*
Y266883D01*
X206636D01*
Y266248D01*
X213754D01*
Y266883D01*
X215125D01*
X216153Y267018D01*
X217111Y267415D01*
X217933Y268046D01*
X218564Y268868D01*
X218961Y269826D01*
X219096Y270854D01*
Y282217D01*
X220096Y282892D01*
X220882Y282736D01*
X222189D01*
X223470Y282991D01*
X224678Y283491D01*
X225764Y284217D01*
X226688Y285141D01*
X227414Y286228D01*
X227914Y287435D01*
X228169Y288717D01*
Y290023D01*
X227914Y291305D01*
X227414Y292512D01*
X226688Y293599D01*
X225764Y294523D01*
X224678Y295249D01*
X223470Y295749D01*
X222189Y296004D01*
X220882D01*
X220096Y295848D01*
X219096Y296523D01*
Y324803D01*
X218961Y325831D01*
X218564Y326789D01*
X217933Y327611D01*
X217111Y328242D01*
X216153Y328639D01*
X215125Y328774D01*
D02*
G37*
G36*
X103081Y278703D02*
X98329D01*
Y276097D01*
X103081D01*
Y278703D01*
D02*
G37*
G36*
X97329D02*
X92577D01*
Y276097D01*
X97329D01*
Y278703D01*
D02*
G37*
G36*
X479441Y277846D02*
X476187D01*
X476441Y276897D01*
X476935Y276040D01*
X477635Y275341D01*
X478491Y274847D01*
X479441Y274592D01*
Y277846D01*
D02*
G37*
G36*
X361024Y270401D02*
X357965D01*
Y267538D01*
X361024D01*
Y270401D01*
D02*
G37*
G36*
X356965D02*
X353906D01*
Y267538D01*
X356965D01*
Y270401D01*
D02*
G37*
G36*
X213754Y265248D02*
X210695D01*
Y262386D01*
X213754D01*
Y265248D01*
D02*
G37*
G36*
X209695D02*
X206636D01*
Y262386D01*
X209695D01*
Y265248D01*
D02*
G37*
G36*
X202330D02*
X199271D01*
Y262386D01*
X202330D01*
Y265248D01*
D02*
G37*
G36*
X198271D02*
X195212D01*
Y262386D01*
X198271D01*
Y265248D01*
D02*
G37*
G36*
X181252Y257890D02*
X181232D01*
Y254437D01*
X184685D01*
Y254457D01*
X184415Y255463D01*
X183895Y256364D01*
X183159Y257100D01*
X182257Y257620D01*
X181252Y257890D01*
D02*
G37*
G36*
X180232D02*
X180211D01*
X179206Y257620D01*
X178305Y257100D01*
X177569Y256364D01*
X177048Y255463D01*
X176779Y254457D01*
Y254437D01*
X180232D01*
Y257890D01*
D02*
G37*
G36*
X418520Y257282D02*
X415461D01*
Y254420D01*
X418520D01*
Y257282D01*
D02*
G37*
G36*
X414461D02*
X411402D01*
Y254420D01*
X414461D01*
Y257282D01*
D02*
G37*
G36*
X184685Y253437D02*
X181232D01*
Y249984D01*
X181252D01*
X182257Y250254D01*
X183159Y250774D01*
X183895Y251510D01*
X184415Y252411D01*
X184685Y253417D01*
Y253437D01*
D02*
G37*
G36*
X180232D02*
X176779D01*
Y253417D01*
X177048Y252411D01*
X177569Y251510D01*
X178305Y250774D01*
X179206Y250254D01*
X180211Y249984D01*
X180232D01*
Y253437D01*
D02*
G37*
G36*
X54618Y250016D02*
X54598D01*
X53592Y249746D01*
X52691Y249226D01*
X51955Y248490D01*
X51435Y247589D01*
X51165Y246583D01*
Y246563D01*
X54618D01*
Y250016D01*
D02*
G37*
G36*
X315520Y248972D02*
X315461D01*
Y245224D01*
X319209D01*
Y245284D01*
X318919Y246364D01*
X318360Y247333D01*
X317569Y248124D01*
X316600Y248683D01*
X315520Y248972D01*
D02*
G37*
G36*
X54618Y245563D02*
X51165D01*
Y245543D01*
X51435Y244537D01*
X51955Y243636D01*
X52691Y242900D01*
X53592Y242380D01*
X54598Y242110D01*
X54618D01*
Y245563D01*
D02*
G37*
G36*
X319209Y244224D02*
X315461D01*
Y240476D01*
X315520D01*
X316600Y240766D01*
X317569Y241325D01*
X318360Y242116D01*
X318919Y243085D01*
X319209Y244165D01*
Y244224D01*
D02*
G37*
G36*
X315520Y238972D02*
X315461D01*
Y235224D01*
X319209D01*
Y235284D01*
X318919Y236364D01*
X318360Y237333D01*
X317569Y238124D01*
X316600Y238683D01*
X315520Y238972D01*
D02*
G37*
G36*
X361024Y232287D02*
X357965D01*
Y229425D01*
X361024D01*
Y232287D01*
D02*
G37*
G36*
X356965D02*
X353906D01*
Y229425D01*
X356965D01*
Y232287D01*
D02*
G37*
G36*
X455793Y279173D02*
X454089D01*
X452406Y278907D01*
X450785Y278380D01*
X449266Y277606D01*
X447888Y276605D01*
X446683Y275400D01*
X445681Y274021D01*
X444907Y272502D01*
X444381Y270882D01*
X444154Y269450D01*
X443786Y268504D01*
X442080D01*
X440407Y268171D01*
X438830Y267518D01*
X437412Y266570D01*
X436205Y265364D01*
X435257Y263945D01*
X434605Y262369D01*
X434272Y260696D01*
Y258989D01*
X434605Y257316D01*
X435257Y255740D01*
X436205Y254321D01*
X437412Y253115D01*
X438830Y252167D01*
X439238Y251998D01*
Y250916D01*
X438830Y250746D01*
X437412Y249799D01*
X436205Y248592D01*
X435257Y247174D01*
X434605Y245597D01*
X434272Y243924D01*
Y242218D01*
X434605Y240544D01*
X435257Y238968D01*
X436205Y237549D01*
X437412Y236343D01*
X438830Y235395D01*
X440407Y234742D01*
X442080Y234409D01*
X443786D01*
X444154Y233463D01*
X444381Y232032D01*
X444907Y230411D01*
X445681Y228892D01*
X446683Y227514D01*
X447888Y226309D01*
X449266Y225307D01*
X450785Y224533D01*
X452406Y224007D01*
X454089Y223740D01*
X455793D01*
X457476Y224007D01*
X459097Y224533D01*
X460615Y225307D01*
X461994Y226309D01*
X463199Y227514D01*
X464201Y228892D01*
X464974Y230411D01*
X465501Y232032D01*
X465728Y233463D01*
X466096Y234409D01*
X467802D01*
X469475Y234742D01*
X471052Y235395D01*
X472470Y236343D01*
X473677Y237549D01*
X474624Y238968D01*
X475277Y240544D01*
X475610Y242218D01*
Y243924D01*
X475277Y245597D01*
X474624Y247174D01*
X473677Y248592D01*
X472883Y249386D01*
Y253527D01*
X473677Y254321D01*
X474624Y255740D01*
X475277Y257316D01*
X475610Y258989D01*
Y260696D01*
X475277Y262369D01*
X474624Y263945D01*
X473677Y265364D01*
X472470Y266570D01*
X471052Y267518D01*
X469475Y268171D01*
X467802Y268504D01*
X466096D01*
X465728Y269450D01*
X465501Y270882D01*
X464974Y272502D01*
X464201Y274021D01*
X463199Y275400D01*
X461994Y276605D01*
X460615Y277606D01*
X459097Y278380D01*
X457476Y278907D01*
X455793Y279173D01*
D02*
G37*
G36*
X94007Y220905D02*
X90948D01*
Y218043D01*
X94007D01*
Y220905D01*
D02*
G37*
G36*
X421669Y215637D02*
X419201D01*
Y212382D01*
X421669D01*
Y215637D01*
D02*
G37*
G36*
X479441Y199067D02*
X476187D01*
X476441Y198117D01*
X476935Y197261D01*
X477635Y196562D01*
X478491Y196067D01*
X479441Y195812D01*
Y199067D01*
D02*
G37*
G36*
X196350Y189819D02*
X193449D01*
Y186917D01*
X196350D01*
Y189819D01*
D02*
G37*
G36*
X455793Y200394D02*
X454089D01*
X452406Y200127D01*
X450785Y199601D01*
X449266Y198827D01*
X447888Y197825D01*
X446683Y196620D01*
X445681Y195241D01*
X444907Y193723D01*
X444381Y192102D01*
X444154Y190671D01*
X443786Y189724D01*
X442080D01*
X440407Y189392D01*
X438830Y188739D01*
X437412Y187791D01*
X436205Y186584D01*
X435257Y185166D01*
X434605Y183589D01*
X434272Y181916D01*
Y180210D01*
X434605Y178537D01*
X435257Y176960D01*
X436205Y175542D01*
X437412Y174335D01*
X438830Y173387D01*
X440407Y172734D01*
X442080Y172402D01*
X443786D01*
X445460Y172734D01*
X447036Y173387D01*
X448454Y174335D01*
X449661Y175542D01*
X450609Y176960D01*
X451262Y178537D01*
X451272Y178589D01*
X452135Y179095D01*
X452406Y179007D01*
X454089Y178740D01*
X455793D01*
X457476Y179007D01*
X457747Y179095D01*
X458610Y178589D01*
X458620Y178537D01*
X459273Y176960D01*
X460221Y175542D01*
X461427Y174335D01*
X462846Y173387D01*
X464422Y172734D01*
X466096Y172402D01*
X467802D01*
X469475Y172734D01*
X471052Y173387D01*
X472470Y174335D01*
X473677Y175542D01*
X474624Y176960D01*
X475277Y178537D01*
X475610Y180210D01*
Y181916D01*
X475277Y183589D01*
X474624Y185166D01*
X473677Y186584D01*
X472470Y187791D01*
X471052Y188739D01*
X469475Y189392D01*
X467802Y189724D01*
X466096D01*
X465728Y190671D01*
X465501Y192102D01*
X464974Y193723D01*
X464201Y195241D01*
X463199Y196620D01*
X461994Y197825D01*
X460615Y198827D01*
X459097Y199601D01*
X457476Y200127D01*
X455793Y200394D01*
D02*
G37*
G36*
X480600Y236260D02*
X479282D01*
X477989Y236003D01*
X476771Y235498D01*
X475674Y234766D01*
X474742Y233833D01*
X474010Y232737D01*
X473505Y231519D01*
X473248Y230226D01*
Y228908D01*
X473505Y227615D01*
X474010Y226397D01*
X474742Y225301D01*
X475476Y224567D01*
X474742Y223833D01*
X474010Y222737D01*
X473505Y221519D01*
X473248Y220226D01*
Y218908D01*
X473505Y217615D01*
X474010Y216397D01*
X474742Y215300D01*
X475476Y214567D01*
X474742Y213833D01*
X474010Y212737D01*
X473505Y211519D01*
X473248Y210226D01*
Y208908D01*
X473505Y207615D01*
X474010Y206397D01*
X474742Y205300D01*
X475674Y204368D01*
X476771Y203636D01*
X477182Y203466D01*
X477293Y203245D01*
X477368Y202306D01*
X476935Y201873D01*
X476441Y201017D01*
X476187Y200067D01*
X479941D01*
Y199567D01*
X480441D01*
Y195812D01*
X481391Y196067D01*
X482247Y196562D01*
X482254Y196568D01*
X482491Y196545D01*
X483295Y195461D01*
X483248Y195226D01*
Y193908D01*
X483505Y192615D01*
X484007Y191404D01*
Y173226D01*
X476065Y165285D01*
X474886Y165519D01*
X474624Y166150D01*
X473677Y167569D01*
X472470Y168775D01*
X471052Y169723D01*
X469475Y170376D01*
X467802Y170709D01*
X466096D01*
X464422Y170376D01*
X462846Y169723D01*
X461427Y168775D01*
X460221Y167569D01*
X459273Y166150D01*
X458620Y164574D01*
X458610Y164521D01*
X457747Y164015D01*
X457476Y164103D01*
X455793Y164370D01*
X454089D01*
X452406Y164103D01*
X452135Y164015D01*
X451272Y164521D01*
X451262Y164574D01*
X450609Y166150D01*
X449661Y167569D01*
X448454Y168775D01*
X447036Y169723D01*
X445460Y170376D01*
X443786Y170709D01*
X442080D01*
X440407Y170376D01*
X438830Y169723D01*
X437412Y168775D01*
X436205Y167569D01*
X435257Y166150D01*
X434605Y164574D01*
X434272Y162900D01*
Y161194D01*
X434605Y159521D01*
X435257Y157945D01*
X436205Y156526D01*
X437412Y155319D01*
X438830Y154372D01*
X440407Y153719D01*
X442080Y153386D01*
X443786D01*
X444154Y152439D01*
X444381Y151008D01*
X444907Y149387D01*
X445681Y147869D01*
X446683Y146490D01*
X447888Y145285D01*
X449266Y144283D01*
X450785Y143510D01*
X452406Y142983D01*
X454089Y142717D01*
X455793D01*
X457476Y142983D01*
X459097Y143510D01*
X460615Y144283D01*
X461994Y145285D01*
X463199Y146490D01*
X463538Y146957D01*
X464538Y146632D01*
Y125984D01*
X464652Y124827D01*
X464990Y123713D01*
X465538Y122687D01*
X466276Y121788D01*
X473717Y114347D01*
X474007Y114110D01*
Y106645D01*
X473007Y106230D01*
X472470Y106767D01*
X471052Y107715D01*
X469475Y108368D01*
X467802Y108701D01*
X466096D01*
X465728Y109647D01*
X465501Y111079D01*
X464974Y112699D01*
X464201Y114218D01*
X463199Y115596D01*
X461994Y116802D01*
X460615Y117803D01*
X459097Y118577D01*
X457476Y119104D01*
X455793Y119370D01*
X454089D01*
X452406Y119104D01*
X450785Y118577D01*
X449266Y117803D01*
X447888Y116802D01*
X446683Y115596D01*
X445681Y114218D01*
X444907Y112699D01*
X444381Y111079D01*
X444154Y109647D01*
X443786Y108701D01*
X442080D01*
X440407Y108368D01*
X438830Y107715D01*
X437412Y106767D01*
X436205Y105561D01*
X435257Y104142D01*
X434605Y102566D01*
X434272Y100892D01*
Y99186D01*
X434605Y97513D01*
X435257Y95937D01*
X436205Y94518D01*
X437412Y93312D01*
X438830Y92364D01*
X439191Y92214D01*
Y91132D01*
X438830Y90983D01*
X437412Y90035D01*
X436205Y88828D01*
X435257Y87410D01*
X434605Y85834D01*
X434272Y84160D01*
Y82454D01*
X434605Y80781D01*
X435257Y79204D01*
X436205Y77786D01*
X437412Y76579D01*
X438830Y75631D01*
X440407Y74979D01*
X442080Y74646D01*
X443786D01*
X444154Y73699D01*
X444381Y72268D01*
X444907Y70647D01*
X445681Y69129D01*
X446683Y67750D01*
X447888Y66545D01*
X449266Y65543D01*
X450785Y64770D01*
X452406Y64243D01*
X454089Y63976D01*
X455793D01*
X457476Y64243D01*
X459097Y64770D01*
X460615Y65543D01*
X461994Y66545D01*
X463199Y67750D01*
X463538Y68217D01*
X464538Y67892D01*
Y45434D01*
X464652Y44276D01*
X464990Y43163D01*
X465538Y42137D01*
X466276Y41238D01*
X471907Y35607D01*
X472806Y34869D01*
X473832Y34321D01*
X474945Y33983D01*
X476103Y33869D01*
X476778D01*
X477989Y33367D01*
X479282Y33110D01*
X480600D01*
X481893Y33367D01*
X483111Y33872D01*
X484207Y34604D01*
X485140Y35537D01*
X485263Y35722D01*
X486187Y35304D01*
X486187Y35303D01*
X489941D01*
Y34803D01*
D01*
Y35303D01*
X493695D01*
X493441Y36253D01*
X492946Y37109D01*
X492514Y37542D01*
X492588Y38481D01*
X492700Y38702D01*
X493111Y38872D01*
X494207Y39604D01*
X495140Y40537D01*
X495872Y41633D01*
X496377Y42851D01*
X496634Y44144D01*
Y45462D01*
X496377Y46755D01*
X495872Y47973D01*
X495140Y49070D01*
X494406Y49803D01*
X495140Y50537D01*
X495872Y51633D01*
X496377Y52851D01*
X496634Y54144D01*
Y55462D01*
X496377Y56755D01*
X495872Y57973D01*
X495140Y59070D01*
X494406Y59803D01*
X495140Y60537D01*
X495872Y61633D01*
X496377Y62851D01*
X496634Y64144D01*
Y65462D01*
X496377Y66755D01*
X495872Y67973D01*
X495140Y69070D01*
X494207Y70002D01*
X493111Y70734D01*
X491893Y71239D01*
X490600Y71496D01*
X489282D01*
X487989Y71239D01*
X487536Y71051D01*
X486395Y71661D01*
X486377Y71755D01*
X485872Y72973D01*
X485140Y74070D01*
X484207Y75002D01*
X483697Y75343D01*
X483533Y76592D01*
X484137Y77197D01*
X484875Y78096D01*
X485423Y79122D01*
X485761Y80235D01*
X485875Y81393D01*
Y111074D01*
X486875Y111342D01*
X486936Y111237D01*
X487635Y110538D01*
X488491Y110043D01*
X489441Y109789D01*
Y113543D01*
X489941D01*
Y114043D01*
X493695D01*
X493441Y114993D01*
X492946Y115849D01*
X492514Y116282D01*
X492588Y117221D01*
X492700Y117442D01*
X493111Y117612D01*
X494207Y118345D01*
X495140Y119277D01*
X495872Y120373D01*
X496377Y121591D01*
X496634Y122884D01*
Y124203D01*
X496377Y125496D01*
X495872Y126714D01*
X495140Y127810D01*
X494406Y128543D01*
X495140Y129277D01*
X495872Y130373D01*
X496377Y131591D01*
X496634Y132884D01*
Y134203D01*
X496377Y135496D01*
X495872Y136714D01*
X495140Y137810D01*
X494406Y138543D01*
X495140Y139277D01*
X495872Y140373D01*
X496377Y141591D01*
X496634Y142884D01*
Y144202D01*
X496377Y145496D01*
X495872Y146714D01*
X495140Y147810D01*
X494207Y148742D01*
X493111Y149475D01*
X491893Y149979D01*
X490600Y150236D01*
X489282D01*
X487989Y149979D01*
X487536Y149792D01*
X486395Y150401D01*
X486377Y150496D01*
X485872Y151714D01*
X485140Y152810D01*
X484207Y153742D01*
X483316Y154338D01*
X483003Y155438D01*
X494137Y166572D01*
X494875Y167472D01*
X495423Y168498D01*
X495761Y169611D01*
X495875Y170768D01*
Y191404D01*
X496377Y192615D01*
X496634Y193908D01*
Y195226D01*
X496377Y196519D01*
X495872Y197737D01*
X495140Y198833D01*
X494406Y199567D01*
X495140Y200301D01*
X495872Y201397D01*
X496377Y202615D01*
X496634Y203908D01*
Y205226D01*
X496377Y206519D01*
X495872Y207737D01*
X495140Y208833D01*
X494406Y209567D01*
X495140Y210300D01*
X495872Y211397D01*
X496377Y212615D01*
X496634Y213908D01*
Y215226D01*
X496377Y216519D01*
X495872Y217737D01*
X495140Y218833D01*
X494406Y219567D01*
X495140Y220301D01*
X495872Y221397D01*
X496377Y222615D01*
X496634Y223908D01*
Y225226D01*
X496377Y226519D01*
X495872Y227737D01*
X495140Y228833D01*
X494207Y229766D01*
X493111Y230498D01*
X491893Y231003D01*
X490600Y231260D01*
X489282D01*
X487989Y231003D01*
X487536Y230815D01*
X486395Y231425D01*
X486377Y231519D01*
X485872Y232737D01*
X485140Y233833D01*
X484207Y234766D01*
X483111Y235498D01*
X481893Y236003D01*
X480600Y236260D01*
D02*
G37*
G36*
X42807Y165917D02*
X39919D01*
X40137Y165104D01*
X40585Y164329D01*
X41219Y163695D01*
X41994Y163248D01*
X42807Y163030D01*
Y165917D01*
D02*
G37*
G36*
X34884Y165917D02*
X31996D01*
Y163030D01*
X32809Y163248D01*
X33585Y163695D01*
X34218Y164329D01*
X34666Y165104D01*
X34884Y165917D01*
D02*
G37*
G36*
X30996D02*
X28109D01*
X28326Y165104D01*
X28774Y164329D01*
X29407Y163695D01*
X30183Y163248D01*
X30996Y163030D01*
Y165917D01*
D02*
G37*
G36*
X46695Y165917D02*
X43807D01*
Y163030D01*
X44620Y163248D01*
X45396Y163695D01*
X46029Y164329D01*
X46477Y165104D01*
X46695Y165917D01*
D02*
G37*
G36*
X43807Y159805D02*
Y156917D01*
X46695D01*
X46477Y157730D01*
X46029Y158506D01*
X45396Y159139D01*
X44620Y159587D01*
X43807Y159805D01*
D02*
G37*
G36*
X42807Y159805D02*
X41994Y159587D01*
X41219Y159139D01*
X40585Y158506D01*
X40137Y157730D01*
X39919Y156917D01*
X42807D01*
Y159805D01*
D02*
G37*
G36*
X31996D02*
Y156917D01*
X34884D01*
X34666Y157730D01*
X34218Y158506D01*
X33585Y159139D01*
X32809Y159587D01*
X31996Y159805D01*
D02*
G37*
G36*
X30996Y159805D02*
X30183Y159587D01*
X29407Y159139D01*
X28774Y158506D01*
X28326Y157730D01*
X28109Y156917D01*
X30996D01*
Y159805D01*
D02*
G37*
G36*
X387492Y151197D02*
X384630D01*
Y148138D01*
X387492D01*
Y151197D01*
D02*
G37*
G36*
X413675Y149483D02*
Y147132D01*
X416183D01*
Y149483D01*
X413675D01*
D02*
G37*
G36*
X387492Y147138D02*
X384630D01*
Y144079D01*
X387492D01*
Y147138D01*
D02*
G37*
G36*
X404248Y123705D02*
X400740D01*
Y121925D01*
X404248D01*
Y123705D01*
D02*
G37*
G36*
X399740D02*
X396232D01*
Y121925D01*
X399740D01*
Y123705D01*
D02*
G37*
G36*
X493695Y113043D02*
X490441D01*
Y109789D01*
X491391Y110043D01*
X492247Y110538D01*
X492946Y111237D01*
X493441Y112094D01*
X493695Y113043D01*
D02*
G37*
G36*
X258795Y76787D02*
X256720D01*
Y73335D01*
X258795D01*
Y76787D01*
D02*
G37*
G36*
X312772D02*
X310697D01*
Y73335D01*
X312772D01*
Y76787D01*
D02*
G37*
G36*
X299697D02*
X297622D01*
Y73335D01*
X299697D01*
Y76787D01*
D02*
G37*
G36*
X34884Y72925D02*
X31996D01*
Y70038D01*
X32809Y70255D01*
X33585Y70703D01*
X34218Y71337D01*
X34666Y72112D01*
X34884Y72925D01*
D02*
G37*
G36*
X200238Y72925D02*
X197350D01*
Y70038D01*
X198163Y70255D01*
X198939Y70703D01*
X199572Y71337D01*
X200020Y72112D01*
X200238Y72925D01*
D02*
G37*
G36*
X196350D02*
X193463D01*
X193681Y72112D01*
X194129Y71337D01*
X194762Y70703D01*
X195537Y70255D01*
X196350Y70038D01*
Y72925D01*
D02*
G37*
G36*
X30996Y72925D02*
X28109D01*
X28326Y72112D01*
X28774Y71337D01*
X29407Y70703D01*
X30183Y70255D01*
X30996Y70038D01*
Y72925D01*
D02*
G37*
G36*
X312772Y72335D02*
X310697D01*
Y68882D01*
X312772D01*
Y72335D01*
D02*
G37*
G36*
X309697Y76787D02*
X305697D01*
Y72835D01*
Y68882D01*
X309697D01*
Y72835D01*
Y76787D01*
D02*
G37*
G36*
X304697D02*
X300697D01*
Y72835D01*
Y68882D01*
X304697D01*
Y72835D01*
Y76787D01*
D02*
G37*
G36*
X299697Y72335D02*
X297622D01*
Y68882D01*
X299697D01*
Y72335D01*
D02*
G37*
G36*
X258795Y72335D02*
X256720D01*
Y68882D01*
X258795D01*
Y72335D01*
D02*
G37*
G36*
X493695Y34303D02*
X490441D01*
Y31049D01*
X491391Y31303D01*
X492247Y31798D01*
X492946Y32497D01*
X493441Y33353D01*
X493695Y34303D01*
D02*
G37*
G36*
X489441D02*
X486187D01*
X486441Y33353D01*
X486936Y32497D01*
X487635Y31798D01*
X488491Y31303D01*
X489441Y31049D01*
Y34303D01*
D02*
G37*
G36*
X455793Y40630D02*
X454089D01*
X452406Y40363D01*
X450785Y39837D01*
X449266Y39063D01*
X447888Y38061D01*
X446683Y36856D01*
X445681Y35478D01*
X444907Y33959D01*
X444381Y32338D01*
X444154Y30907D01*
X443786Y29961D01*
X442080D01*
X440407Y29628D01*
X438830Y28975D01*
X437412Y28027D01*
X436618Y27233D01*
X414483D01*
X413359Y27699D01*
X412073Y27955D01*
X410762D01*
X409476Y27699D01*
X408265Y27197D01*
X407175Y26469D01*
X406248Y25542D01*
X405519Y24452D01*
X405018Y23241D01*
X404762Y21955D01*
Y20644D01*
X405018Y19358D01*
X405519Y18147D01*
X406248Y17057D01*
X407175Y16129D01*
X408265Y15401D01*
X409476Y14899D01*
X410762Y14644D01*
X412073D01*
X413359Y14899D01*
X414483Y15365D01*
X436618D01*
X437412Y14571D01*
X438830Y13624D01*
X440407Y12971D01*
X442080Y12638D01*
X443786D01*
X445460Y12971D01*
X447036Y13624D01*
X448454Y14571D01*
X449661Y15778D01*
X450609Y17197D01*
X451262Y18773D01*
X451272Y18825D01*
X452135Y19331D01*
X452406Y19243D01*
X454089Y18976D01*
X455793D01*
X457476Y19243D01*
X457747Y19331D01*
X458610Y18825D01*
X458620Y18773D01*
X459273Y17197D01*
X460221Y15778D01*
X461427Y14571D01*
X462846Y13624D01*
X464422Y12971D01*
X466096Y12638D01*
X467802D01*
X469475Y12971D01*
X471052Y13624D01*
X472470Y14571D01*
X473677Y15778D01*
X474624Y17197D01*
X475277Y18773D01*
X475610Y20446D01*
Y22152D01*
X475277Y23826D01*
X474624Y25402D01*
X473677Y26820D01*
X472470Y28027D01*
X471052Y28975D01*
X469475Y29628D01*
X467802Y29961D01*
X466096D01*
X465728Y30907D01*
X465501Y32338D01*
X464974Y33959D01*
X464201Y35478D01*
X463199Y36856D01*
X461994Y38061D01*
X460615Y39063D01*
X459097Y39837D01*
X457476Y40363D01*
X455793Y40630D01*
D02*
G37*
G36*
X372547Y25015D02*
Y21799D01*
X375763D01*
X375512Y22735D01*
X375023Y23582D01*
X374330Y24275D01*
X373482Y24764D01*
X372547Y25015D01*
D02*
G37*
G36*
X371547Y25015D02*
X370612Y24764D01*
X369764Y24275D01*
X369072Y23582D01*
X368582Y22735D01*
X368332Y21799D01*
X371547D01*
Y25015D01*
D02*
G37*
G36*
Y20799D02*
X368332D01*
X368582Y19864D01*
X369072Y19016D01*
X369764Y18324D01*
X370612Y17834D01*
X371547Y17583D01*
Y20799D01*
D02*
G37*
G36*
X375763D02*
X372547D01*
Y17583D01*
X373482Y17834D01*
X374330Y18324D01*
X375023Y19016D01*
X375512Y19864D01*
X375763Y20799D01*
D02*
G37*
G36*
X190051Y13476D02*
X186795D01*
Y11008D01*
X190051D01*
Y13476D01*
D02*
G37*
G36*
X258795Y13795D02*
X256720D01*
Y10343D01*
X258795D01*
Y13795D01*
D02*
G37*
G36*
X312772D02*
X310697D01*
Y10343D01*
X312772D01*
Y13795D01*
D02*
G37*
G36*
X299697D02*
X297622D01*
Y10343D01*
X299697D01*
Y13795D01*
D02*
G37*
G36*
X210117Y9903D02*
X207254D01*
Y6844D01*
X210117D01*
Y9903D01*
D02*
G37*
G36*
X312772Y9342D02*
X310697D01*
Y5890D01*
X312772D01*
Y9342D01*
D02*
G37*
G36*
X299697D02*
X297622D01*
Y5890D01*
X299697D01*
Y9342D01*
D02*
G37*
G36*
X258795Y9342D02*
X256720D01*
Y5890D01*
X258795D01*
Y9342D01*
D02*
G37*
G36*
X308740Y14764D02*
X301654D01*
Y13795D01*
X300697D01*
Y9843D01*
Y5890D01*
X301654D01*
Y4921D01*
X308740D01*
Y5890D01*
X309697D01*
Y9843D01*
Y13795D01*
X308740D01*
Y14764D01*
D02*
G37*
G36*
X254764D02*
X227677D01*
Y13795D01*
X226720D01*
Y9843D01*
Y5890D01*
X227677D01*
Y4921D01*
X254764D01*
Y5890D01*
X255720D01*
Y9843D01*
Y13795D01*
X254764D01*
Y14764D01*
D02*
G37*
%LPD*%
G36*
X157480Y238189D02*
X114173D01*
Y324803D01*
X157480D01*
Y238189D01*
D02*
G37*
G36*
X102362Y226378D02*
X76772D01*
Y216535D01*
X25591D01*
Y236221D01*
X62992D01*
Y251969D01*
X102362D01*
Y226378D01*
D02*
G37*
G36*
X49213Y171260D02*
X25591D01*
Y214567D01*
X49213D01*
Y171260D01*
D02*
G37*
G36*
X215125Y270854D02*
X167323D01*
Y324803D01*
X215125D01*
Y270854D01*
D02*
G37*
%LPC*%
G36*
X246544Y127969D02*
X246524D01*
Y124516D01*
X249976D01*
Y124536D01*
X249707Y125541D01*
X249187Y126443D01*
X248451Y127179D01*
X247549Y127699D01*
X246544Y127969D01*
D02*
G37*
G36*
X245524D02*
X245503D01*
X244498Y127699D01*
X243597Y127179D01*
X242861Y126443D01*
X242340Y125541D01*
X242071Y124536D01*
Y124516D01*
X245524D01*
Y127969D01*
D02*
G37*
G36*
X249976Y123516D02*
X246524D01*
Y120063D01*
X246544D01*
X247549Y120332D01*
X248451Y120853D01*
X249187Y121589D01*
X249707Y122490D01*
X249976Y123495D01*
Y123516D01*
D02*
G37*
G36*
X245524D02*
X242071D01*
Y123495D01*
X242340Y122490D01*
X242861Y121589D01*
X243597Y120853D01*
X244498Y120332D01*
X245503Y120063D01*
X245524D01*
Y123516D01*
D02*
G37*
G36*
X217965Y96079D02*
X215102D01*
Y93020D01*
X217965D01*
Y96079D01*
D02*
G37*
G36*
X217965Y84146D02*
X215102D01*
Y81087D01*
X217965D01*
Y84146D01*
D02*
G37*
G36*
X220721Y76787D02*
X218646D01*
Y73335D01*
X220721D01*
Y76787D01*
D02*
G37*
G36*
Y72335D02*
X218646D01*
Y68882D01*
X220721D01*
Y72335D01*
D02*
G37*
%LPD*%
D16*
X97829Y248825D02*
D03*
Y255518D02*
D03*
Y262211D02*
D03*
Y268904D02*
D03*
Y275597D02*
D03*
D17*
X411221Y216138D02*
D03*
X418701D02*
D03*
X414961Y224799D02*
D03*
D18*
X190551Y21457D02*
D03*
Y13976D02*
D03*
X199213Y17717D02*
D03*
D19*
X251220Y72835D02*
D03*
X246220D02*
D03*
X241220D02*
D03*
X236221D02*
D03*
X231221D02*
D03*
X226220D02*
D03*
X221220D02*
D03*
X256221D02*
D03*
X226220Y9843D02*
D03*
X231221D02*
D03*
X236221D02*
D03*
X241220D02*
D03*
X246220D02*
D03*
X251220D02*
D03*
X256221D02*
D03*
X221220D02*
D03*
X300197Y72835D02*
D03*
X305197D02*
D03*
X310197D02*
D03*
X300197Y9843D02*
D03*
X305197D02*
D03*
X310197D02*
D03*
D20*
X291752Y303150D02*
D03*
X353917D02*
D03*
D21*
X385729Y246440D02*
D03*
X388287D02*
D03*
X390847D02*
D03*
X393406D02*
D03*
X395965D02*
D03*
X398524D02*
D03*
X401083D02*
D03*
X403642D02*
D03*
X406201D02*
D03*
X408760D02*
D03*
X385729Y269668D02*
D03*
X388287D02*
D03*
X390847D02*
D03*
X393406D02*
D03*
X395965D02*
D03*
X398524D02*
D03*
X401083D02*
D03*
X403642D02*
D03*
X406201D02*
D03*
X408760D02*
D03*
D22*
X262402Y270079D02*
D03*
X265945D02*
D03*
X269488D02*
D03*
X273031D02*
D03*
Y265354D02*
D03*
X269488D02*
D03*
X265945D02*
D03*
X262402D02*
D03*
D23*
X259693Y282659D02*
D03*
Y288880D02*
D03*
Y247195D02*
D03*
Y253415D02*
D03*
X266071Y247195D02*
D03*
Y253415D02*
D03*
X273012Y247195D02*
D03*
Y253415D02*
D03*
X208895Y23586D02*
D03*
Y17365D02*
D03*
X413175Y146632D02*
D03*
Y140412D02*
D03*
Y128595D02*
D03*
Y134815D02*
D03*
X404228Y222481D02*
D03*
Y216261D02*
D03*
X417323Y239331D02*
D03*
Y233110D02*
D03*
X420130Y292480D02*
D03*
Y286260D02*
D03*
X413175Y115984D02*
D03*
Y122205D02*
D03*
X403543Y77598D02*
D03*
Y83819D02*
D03*
Y53976D02*
D03*
Y60197D02*
D03*
Y101221D02*
D03*
Y107441D02*
D03*
D24*
X273012Y281792D02*
D03*
Y289272D02*
D03*
X266071Y281792D02*
D03*
Y289272D02*
D03*
X210195Y265748D02*
D03*
Y273228D02*
D03*
X198771Y265748D02*
D03*
Y273228D02*
D03*
X90448Y221405D02*
D03*
Y228886D02*
D03*
X83261Y221405D02*
D03*
Y228886D02*
D03*
X414961Y246440D02*
D03*
Y253920D02*
D03*
X357465Y259558D02*
D03*
Y267038D02*
D03*
Y240268D02*
D03*
Y232787D02*
D03*
X379910Y285630D02*
D03*
Y293110D02*
D03*
D25*
X218465Y84646D02*
D03*
X225945D02*
D03*
X218465Y92520D02*
D03*
X225945D02*
D03*
X206754Y6344D02*
D03*
X199274D02*
D03*
X106696Y229188D02*
D03*
X99215D02*
D03*
X395472Y147638D02*
D03*
X387992D02*
D03*
D26*
X196725Y28799D02*
D03*
X190504D02*
D03*
X91845Y288430D02*
D03*
X98066D02*
D03*
X98066Y294335D02*
D03*
X91845D02*
D03*
X386653Y116142D02*
D03*
X392874D02*
D03*
X390905Y92520D02*
D03*
X384685D02*
D03*
X390905Y68898D02*
D03*
X384685D02*
D03*
D27*
X175575Y313072D02*
D03*
X136599D02*
D03*
D28*
X121885Y313677D02*
D03*
X94325D02*
D03*
D29*
X385433Y80709D02*
D03*
X394094Y84449D02*
D03*
Y76968D02*
D03*
X393898Y100591D02*
D03*
Y108071D02*
D03*
X385236Y104331D02*
D03*
X394094Y53347D02*
D03*
Y60827D02*
D03*
X385433Y57087D02*
D03*
D30*
X378894Y139205D02*
D03*
Y134205D02*
D03*
Y129205D02*
D03*
Y124205D02*
D03*
X400240D02*
D03*
Y129205D02*
D03*
Y134205D02*
D03*
Y139205D02*
D03*
D31*
X390748Y296870D02*
D03*
Y291870D02*
D03*
Y286870D02*
D03*
Y281870D02*
D03*
X412402Y296870D02*
D03*
Y291870D02*
D03*
Y286870D02*
D03*
Y281870D02*
D03*
D65*
X431296Y130427D02*
X432270Y130523D01*
X433207Y130807D01*
X434070Y131269D01*
X434827Y131890D01*
X438976D02*
X438844Y132905D01*
X438455Y133852D01*
X437836Y134668D01*
X415183Y133496D02*
X416253Y133186D01*
X417362Y133081D01*
X426958D02*
X427881Y133361D01*
X428757Y133767D01*
X429566Y134292D01*
X430295Y134925D01*
X437836Y134668D02*
X437136Y135266D01*
X436351Y135747D01*
X435500Y136100D01*
X434604Y136315D01*
X433686Y136387D01*
X432828Y136316D01*
X431994Y136105D01*
X431206Y135760D01*
X430295Y134925D01*
X413175Y128595D02*
X412499Y129046D01*
X411702Y129205D01*
X417600Y130427D02*
X416621Y130350D01*
X415666Y130121D01*
X414759Y129745D01*
X413922Y129232D01*
X413175Y128595D01*
X411438Y134205D02*
X412451Y134298D01*
X413430Y134575D01*
X414259Y133959D01*
X415183Y133496D01*
X413175Y134815D02*
X413430Y134575D01*
X418657Y291870D02*
X419455Y292029D01*
X420130Y292480D01*
X476974Y308347D02*
X475981Y308308D01*
X474994Y308191D01*
X474020Y307997D01*
X473063Y307727D01*
X472131Y307383D01*
X471229Y306967D01*
X470362Y306482D01*
X469536Y305930D01*
X468756Y305315D01*
X468026Y304640D01*
X449940Y290697D02*
X450921Y290745D01*
X451891Y290889D01*
X452843Y291127D01*
X453767Y291458D01*
X454655Y291878D01*
X455496Y292382D01*
X456284Y292967D01*
X457012Y293626D01*
X420130Y292480D02*
X420857Y291860D01*
X421672Y291360D01*
X422554Y290995D01*
X423484Y290772D01*
X424436Y290697D01*
X420130Y286260D02*
X419454Y286712D01*
X418657Y286870D01*
X474627Y303346D02*
X473647Y303298D01*
X472676Y303154D01*
X471724Y302916D01*
X470800Y302585D01*
X469913Y302166D01*
X469071Y301661D01*
X468283Y301077D01*
X467556Y300417D01*
X449945Y288043D02*
X450937Y288082D01*
X451923Y288199D01*
X452897Y288392D01*
X453852Y288662D01*
X454783Y289005D01*
X455685Y289421D01*
X456551Y289906D01*
X457376Y290458D01*
X458155Y291072D01*
X458884Y291746D01*
X424436Y288043D02*
X423484Y287968D01*
X422554Y287745D01*
X421672Y287380D01*
X420857Y286880D01*
X420130Y286260D01*
X417362Y133081D02*
X426958D01*
X417600Y130427D02*
X431296D01*
X413175Y122205D02*
Y128595D01*
X400240Y129205D02*
X411702D01*
X400240Y134205D02*
X411438D01*
X413175Y134815D02*
Y140412D01*
X368110Y74803D02*
Y133858D01*
Y74803D02*
X374016Y68898D01*
X368110Y133858D02*
X373457Y139205D01*
X384685Y88583D02*
X385433Y87835D01*
Y80709D02*
Y87835D01*
X375984Y92520D02*
X384685D01*
Y88583D02*
Y92520D01*
X374016Y68898D02*
X384685D01*
Y63346D02*
X385433Y62598D01*
X384685Y63346D02*
Y68898D01*
X403761Y230313D02*
Y246321D01*
X335599Y209615D02*
X383064D01*
X403761Y230313D01*
X401083Y231833D02*
Y246440D01*
X333684Y212722D02*
X381972D01*
X401083Y231833D01*
X398474Y233507D02*
Y246390D01*
X381216Y216250D02*
X398474Y233507D01*
X332676Y216250D02*
X381216D01*
X393406Y232386D02*
Y246440D01*
X379765Y218745D02*
X393406Y232386D01*
X329954Y218745D02*
X379765D01*
X328594Y221307D02*
X377876D01*
X390847Y234278D02*
Y246440D01*
X377876Y221307D02*
X390847Y234278D01*
X321337Y204911D02*
X332676Y216250D01*
X314607Y204911D02*
X321337D01*
X324362Y203401D02*
X333684Y212722D01*
X324362Y198378D02*
Y203401D01*
X320709Y194724D02*
X324362Y198378D01*
X327157Y201173D02*
X335599Y209615D01*
X327157Y192002D02*
Y201173D01*
X330709Y200787D02*
X336614Y206693D01*
X384881D02*
X400670Y222481D01*
X336614Y206693D02*
X384881D01*
X330709Y185039D02*
Y200787D01*
X320394Y174724D02*
X330709Y185039D01*
X400670Y222481D02*
X404228D01*
X325933Y214724D02*
X329954Y218745D01*
X314961Y214724D02*
X325933D01*
X325177Y224724D02*
X328594Y221307D01*
X314961Y184724D02*
X319880D01*
X327157Y192002D01*
X314961Y224724D02*
X325177D01*
X314961Y174724D02*
X320394D01*
X314961Y194724D02*
X320709D01*
X403642Y246440D02*
X403761Y246321D01*
X381890Y269685D02*
X381907Y269668D01*
X385729D01*
Y275492D02*
X385827Y275590D01*
X385729Y269668D02*
Y275492D01*
X378894Y129205D02*
Y134205D01*
X394190Y53251D02*
X398703D01*
X399429Y53976D01*
X403543D01*
X398595Y77598D02*
X403543D01*
X397965Y76968D02*
X398595Y77598D01*
X394094Y76968D02*
X397965D01*
X398403Y101221D02*
X403543D01*
X397773Y100591D02*
X398403Y101221D01*
X393898Y100591D02*
X397773D01*
X385433Y57087D02*
Y62598D01*
X373457Y139205D02*
X378894D01*
X374016Y134205D02*
X378894D01*
X372047Y96457D02*
Y132236D01*
X374016Y134205D01*
X372047Y96457D02*
X375984Y92520D01*
X385236Y107677D02*
X386653Y109095D01*
X385236Y104331D02*
Y107677D01*
X386653Y109095D02*
Y116142D01*
Y121221D01*
X383669Y124205D02*
X386653Y121221D01*
X378894Y124205D02*
X383669D01*
X412402Y291870D02*
X418657D01*
X476974Y308347D02*
X479941D01*
X457012Y293626D02*
X468026Y304640D01*
X424436Y290697D02*
X449940D01*
X412402Y286870D02*
X418657D01*
X474627Y303346D02*
X489941D01*
X458884Y291746D02*
X467556Y300417D01*
X424436Y288043D02*
X449945D01*
D66*
X386302Y262959D02*
X386993Y263768D01*
X387549Y264675D01*
X387956Y265657D01*
X388204Y266692D01*
X388287Y267752D01*
X378167Y259590D02*
X379170Y259633D01*
X380165Y259764D01*
X381145Y259982D01*
X382102Y260283D01*
X383029Y260667D01*
X383920Y261131D01*
X384766Y261670D01*
X385562Y262281D01*
X386302Y262959D01*
X390813Y268253D02*
X390776Y269636D01*
X386151Y257261D02*
X386870Y258030D01*
X387537Y258843D01*
X388148Y259700D01*
X388702Y260594D01*
X389195Y261524D01*
X389626Y262484D01*
X389993Y263470D01*
X389993Y263470D02*
X390370Y264502D01*
X390643Y265567D01*
X390807Y266654D01*
X390862Y267752D01*
Y267752D02*
X390813Y268253D01*
X374518Y245628D02*
X373877Y244898D01*
X373338Y244090D01*
X372908Y243219D01*
X372596Y242299D01*
X372406Y241346D01*
X372343Y240377D01*
X409418Y232140D02*
X417187D01*
X417323Y232276D01*
X406201Y235357D02*
X409418Y232140D01*
X414961Y227901D02*
X416752Y229692D01*
Y231705D01*
X414961Y224799D02*
Y227901D01*
X416752Y231705D02*
X417323Y232276D01*
X273431Y253835D02*
Y258537D01*
X273012Y253415D02*
X273431Y253835D01*
X273594Y258561D02*
Y260890D01*
X273031Y261452D02*
X273594Y260890D01*
X273031Y261452D02*
Y265354D01*
X266071Y270204D02*
Y281792D01*
X266175Y281688D01*
Y276193D02*
Y281688D01*
X259694Y257329D02*
X261814Y259449D01*
X259694Y253415D02*
Y257329D01*
X262402Y270079D02*
Y273749D01*
X259693Y276458D02*
Y282659D01*
Y276458D02*
X262402Y273749D01*
X269488Y270079D02*
Y272638D01*
X265945Y270079D02*
X266071Y270204D01*
X266071Y253415D02*
Y257026D01*
X268116Y259071D01*
X269488Y260444D01*
Y265354D01*
X262987Y259449D02*
X265945Y262407D01*
Y265354D01*
X261814Y259449D02*
X262987D01*
X273012Y276161D02*
Y281792D01*
X269488Y272638D02*
X273012Y276161D01*
X291752Y291752D02*
Y303150D01*
X281792Y281792D02*
X291752Y291752D01*
X273012Y281792D02*
X281792D01*
X372343Y259590D02*
X378167D01*
X374518Y245628D02*
X386151Y257261D01*
X357575Y240377D02*
X372343D01*
X357465Y240268D02*
X357575Y240377D01*
X357465Y259558D02*
X357497Y259590D01*
X372343D01*
X406201Y235357D02*
Y246440D01*
X411097Y216261D02*
X411221Y216138D01*
X404228Y216261D02*
X411097D01*
X388287Y267752D02*
Y269668D01*
X379910Y285630D02*
X380107Y285433D01*
X383858D01*
X385295Y286870D01*
X390748D01*
X403543Y281496D02*
Y289011D01*
X395684Y296870D02*
X403543Y289011D01*
X390748Y296870D02*
X395684D01*
X398517Y282101D02*
X406201Y274417D01*
X390980Y282101D02*
X398517D01*
X406201Y269668D02*
Y274417D01*
X390748Y281870D02*
X390980Y282101D01*
X403543Y281496D02*
X408760Y276279D01*
Y269668D02*
Y276279D01*
D67*
X138518Y262211D02*
D03*
D68*
X411417Y321850D02*
X442933D01*
X411417Y321850D02*
X411417Y321850D01*
X470472Y71924D02*
X479941Y81393D01*
X470472Y45434D02*
Y71924D01*
Y45434D02*
X476103Y39803D01*
X470472Y125984D02*
Y151300D01*
X489941Y170768D01*
X470472Y125984D02*
X477913Y118543D01*
X479941Y81393D02*
Y118543D01*
X477913Y118543D02*
X479941Y118543D01*
X476103Y39803D02*
X479941D01*
X489941Y170768D02*
Y194567D01*
X411417Y21299D02*
X442933D01*
X466949Y83307D02*
Y100039D01*
Y243071D02*
Y259842D01*
D69*
X208895Y29761D02*
X226220Y47087D01*
X208895Y23586D02*
Y29761D01*
X392874Y116142D02*
X398759D01*
X398895Y116278D01*
X399031Y116142D02*
X413018D01*
X398895Y116278D02*
X399031Y116142D01*
X402571Y48588D02*
X403543Y49561D01*
Y53976D01*
X259693Y247195D02*
X266071D01*
X254296D02*
X259693D01*
X254264Y247162D02*
X254296Y247195D01*
X266071D02*
X273012D01*
X403543Y95374D02*
X403555Y95362D01*
X403543Y95374D02*
Y101221D01*
Y71798D02*
Y77598D01*
X226220Y47087D02*
Y54961D01*
X213698Y247162D02*
X254264D01*
X185039Y218504D02*
X213698Y247162D01*
X185039Y186417D02*
Y218504D01*
X226220Y54961D02*
Y72835D01*
X225945Y92520D02*
X226339Y92913D01*
Y124016D01*
X225945Y92520D02*
X226142Y92323D01*
Y84646D02*
Y92323D01*
Y84646D02*
X226220Y84567D01*
Y72835D02*
Y84567D01*
X392874Y68898D02*
X397638D01*
X392874Y92520D02*
X397638D01*
D70*
X199213Y17717D02*
X207841D01*
X208543Y17014D01*
X209246Y17717D01*
X218504D01*
X221220Y15000D01*
X408493Y60197D02*
X408756Y60460D01*
X409958Y59258D01*
Y49143D02*
Y59258D01*
X403543Y60197D02*
X408493D01*
X86509Y294242D02*
X86602Y294335D01*
X91845D01*
X408772Y107441D02*
X413386Y102827D01*
Y85268D02*
Y102827D01*
X403543Y107441D02*
X408772D01*
X413386Y47406D02*
Y79360D01*
X408927Y83819D02*
X413386Y79360D01*
X398483Y83819D02*
X408927D01*
X290968Y174579D02*
X304815D01*
X286567Y163494D02*
Y170178D01*
X290968Y174579D01*
X274591Y151518D02*
X286567Y163494D01*
X274591Y108117D02*
Y151518D01*
X287087Y184724D02*
X304961D01*
X282877Y165779D02*
Y180515D01*
X287087Y184724D01*
X279370Y168163D02*
Y190788D01*
X283307Y194724D02*
X304961D01*
X279370Y190788D02*
X283307Y194724D01*
X271654Y170754D02*
Y200787D01*
X285591Y214724D02*
X304961D01*
X271654Y200787D02*
X285591Y214724D01*
X275590Y198819D02*
X281496Y204724D01*
X275590Y169291D02*
Y198819D01*
X281496Y204724D02*
X304961D01*
X266389Y94402D02*
X278759Y106772D01*
Y150806D02*
X291721Y163768D01*
X278759Y106772D02*
Y150806D01*
X253851Y94402D02*
X266389D01*
X251220Y91772D02*
X253851Y94402D01*
X251220Y72835D02*
Y91772D01*
X264775Y98301D02*
X274591Y108117D01*
X249876Y98301D02*
X264775D01*
X246155Y94580D02*
X249876Y98301D01*
X246155Y72900D02*
Y94580D01*
X263779Y102362D02*
X270423Y109005D01*
Y153324D02*
X282877Y165779D01*
X270423Y109005D02*
Y153324D01*
X248031Y102362D02*
X263779D01*
X241220Y95551D02*
X248031Y102362D01*
X241220Y72835D02*
Y95551D01*
X266388Y155181D02*
X279370Y168163D01*
X266388Y110876D02*
Y155181D01*
X261811Y106299D02*
X266388Y110876D01*
X246063Y106299D02*
X261811D01*
X236221Y96457D02*
X246063Y106299D01*
X236221Y81803D02*
Y96457D01*
X232283Y98425D02*
X243576Y109718D01*
X231221Y72835D02*
Y80578D01*
X232283Y81641D02*
Y98425D01*
X231221Y80578D02*
X232283Y81641D01*
X236221Y72835D02*
Y81803D01*
X260361Y109718D02*
X262893Y112251D01*
X243576Y109718D02*
X260361D01*
X262893Y112251D02*
Y156594D01*
X275590Y169291D01*
X216248Y137508D02*
X238407D01*
X271654Y170754D01*
X291721Y163768D02*
X304005D01*
X181850Y83425D02*
X185039D01*
X121457Y55709D02*
X154134D01*
X181850Y83425D01*
X181102Y98425D02*
X191850D01*
X158626Y75949D02*
X181102Y98425D01*
X121696Y75949D02*
X158626D01*
X175305Y108376D02*
X192121D01*
X163102Y96173D02*
X175305Y108376D01*
X121921Y96173D02*
X163102D01*
X108154Y73425D02*
X109173D01*
X98774Y82805D02*
X108154Y73425D01*
X80456Y82805D02*
X98774D01*
X70903Y92358D02*
X80456Y82805D01*
X53341Y92358D02*
X70903D01*
X43307Y113425D02*
X47176D01*
X58239Y102362D01*
X76104D01*
X83925Y94541D01*
X98478D01*
X107362Y103425D01*
X106753Y61005D02*
X109173Y63425D01*
X70885Y61005D02*
X106753D01*
X50699Y81191D02*
X70885Y61005D01*
X106508Y56090D02*
X109173Y53425D01*
X47720Y78090D02*
X69720Y56090D01*
X106508D01*
X121642Y60957D02*
X151508D01*
X119173Y63425D02*
X121642Y60957D01*
X151508D02*
X183976Y93425D01*
X119173Y53425D02*
X121457Y55709D01*
X155368Y80564D02*
X178228Y103425D01*
X119173Y83425D02*
X122034Y80564D01*
X155368D01*
X119173Y73425D02*
X121696Y75949D01*
X119173Y103425D02*
X121881Y100718D01*
X161741D02*
X174449Y113425D01*
X121881Y100718D02*
X161741D01*
X119173Y93425D02*
X121921Y96173D01*
X120304Y133425D02*
X123893Y129836D01*
X144586D01*
X151006Y136256D01*
X119173Y143425D02*
X129089Y133509D01*
X143019D02*
X147481Y137971D01*
X129089Y133509D02*
X143019D01*
X120865Y123425D02*
X123526Y126086D01*
X145989D02*
X154304Y134401D01*
X123526Y126086D02*
X145989D01*
X130058Y122907D02*
X148331D01*
X119173Y113425D02*
X120577D01*
X130058Y122907D01*
X119173Y133425D02*
X120304D01*
X119173Y123425D02*
X120865D01*
X43307D02*
X43712Y123021D01*
X99578D01*
X109173Y113425D01*
X43399Y136326D02*
X47618D01*
X53259Y130684D02*
X105093D01*
X47618Y136326D02*
X53259Y130684D01*
X48061Y129921D02*
X51681Y126301D01*
X104014D02*
X106890Y123425D01*
X51681Y126301D02*
X104014D01*
X107835Y133425D02*
X109173D01*
X105093Y130684D02*
X107835Y133425D01*
X106890Y123425D02*
X109173D01*
X147481Y158899D02*
X164999Y176417D01*
X185039D01*
X147481Y137971D02*
Y158899D01*
X151006Y136256D02*
Y157534D01*
X164705Y171233D01*
X191666D01*
X154304Y134401D02*
Y156056D01*
X164426Y166177D01*
X184800D02*
X185039Y166417D01*
X164426Y166177D02*
X184800D01*
X157830Y154464D02*
X164783Y161417D01*
X157830Y132405D02*
Y154464D01*
X164783Y161417D02*
X191850D01*
X148331Y122907D02*
X157830Y132405D01*
X191666Y171233D02*
X196850Y176417D01*
X191850Y161417D02*
X196850Y166417D01*
X174449Y113425D02*
X185039D01*
X192121Y108376D02*
X196850Y113106D01*
Y113425D01*
X178228Y103425D02*
X185039D01*
X191850Y98425D02*
X196850Y103425D01*
X183976Y93425D02*
X185039D01*
X36831Y78090D02*
X47720D01*
X107362Y103425D02*
X109173D01*
X36496Y98425D02*
X47274D01*
X53341Y92358D01*
X47593Y103425D02*
X55316Y95702D01*
X72588D02*
X81676Y86614D01*
X55316Y95702D02*
X72588D01*
X81676Y86614D02*
X105984D01*
X109173Y83425D01*
X73940Y99126D02*
X82515Y90551D01*
X47524Y108268D02*
X56665Y99126D01*
X82515Y90551D02*
X106299D01*
X56665Y99126D02*
X73940D01*
X106299Y90551D02*
X109173Y93425D01*
X45541Y81191D02*
X50699D01*
X31496Y83425D02*
X36831Y78090D01*
X43423Y146301D02*
X55818Y133906D01*
X99654D02*
X109173Y143425D01*
X55818Y133906D02*
X99654D01*
X37992Y129921D02*
X48061D01*
X36654Y108268D02*
X47524D01*
X43307Y103425D02*
X47593D01*
X43307Y83425D02*
X45541Y81191D01*
X31496Y113425D02*
X36654Y108268D01*
X31496Y103425D02*
X36496Y98425D01*
X31496Y136417D02*
X37992Y129921D01*
X208661D02*
X216248Y137508D01*
X208661Y53150D02*
Y129921D01*
X196725Y41213D02*
X208661Y53150D01*
X196725Y28799D02*
Y41213D01*
X199213Y6406D02*
X199274Y6344D01*
X199213Y6406D02*
Y17717D01*
X221220Y9843D02*
Y15000D01*
X190504Y21504D02*
X190551Y21457D01*
X190504Y21504D02*
Y28799D01*
X394181Y84535D02*
X397767D01*
X398483Y83819D01*
X416969Y44441D02*
Y81685D01*
X413386Y85268D02*
X416969Y81685D01*
X409217Y36689D02*
X416969Y44441D01*
X404919Y44104D02*
X409958Y49143D01*
X366833Y44104D02*
X404919D01*
X363126Y36689D02*
X409217D01*
X363295Y47643D02*
X366833Y44104D01*
X356048Y43767D02*
X363126Y36689D01*
X356048Y43767D02*
Y138046D01*
X363295Y47643D02*
Y140642D01*
X352484Y151453D02*
X363295Y140642D01*
X350394Y143701D02*
X356048Y138046D01*
X328232Y151453D02*
X352484D01*
X314961Y164724D02*
X328232Y151453D01*
X359535Y46138D02*
Y139202D01*
X321976Y147709D02*
X351029D01*
X359535Y139202D01*
X314961Y154724D02*
X321976Y147709D01*
X406335Y40355D02*
X413386Y47406D01*
X365319Y40355D02*
X406335D01*
X359535Y46138D02*
X365319Y40355D01*
X314961Y143701D02*
X350394D01*
X304961Y153701D02*
X314961Y143701D01*
X304961Y153701D02*
Y154724D01*
X397835Y108071D02*
X398465Y107441D01*
X393898Y108071D02*
X397835D01*
X398465Y107441D02*
X403543D01*
X304005Y163768D02*
X304961Y164724D01*
X98066Y288430D02*
X98066Y288430D01*
Y294335D01*
X107386Y270591D02*
Y286105D01*
X98066Y288430D02*
X105062D01*
X107386Y286105D01*
X105699Y268904D02*
X107386Y270591D01*
X97829Y268904D02*
X105699D01*
X97829Y255518D02*
X104092D01*
X106696Y229188D02*
Y252915D01*
X104092Y255518D02*
X106696Y252915D01*
X397212Y60827D02*
X398001Y60037D01*
X403384D01*
X394094Y60827D02*
X397212D01*
D71*
X97829Y262211D02*
X138518D01*
X379713Y285433D02*
X379910Y285630D01*
X374016Y285433D02*
X379713D01*
D72*
X479941Y288347D02*
D03*
X489941Y293347D02*
D03*
Y283347D02*
D03*
X479941Y298346D02*
D03*
Y278346D02*
D03*
X489941Y303346D02*
D03*
Y273346D02*
D03*
X479941Y308347D02*
D03*
Y209567D02*
D03*
X489941Y214567D02*
D03*
Y204567D02*
D03*
X479941Y219567D02*
D03*
Y199567D02*
D03*
X489941Y224567D02*
D03*
Y194567D02*
D03*
X479941Y229567D02*
D03*
Y128543D02*
D03*
X489941Y133543D02*
D03*
Y123543D02*
D03*
X479941Y138543D02*
D03*
Y118543D02*
D03*
X489941Y143543D02*
D03*
Y113543D02*
D03*
X479941Y148543D02*
D03*
Y49803D02*
D03*
X489941Y54803D02*
D03*
Y44803D02*
D03*
X479941Y59803D02*
D03*
Y39803D02*
D03*
X489941Y64803D02*
D03*
Y34803D02*
D03*
X479941Y69803D02*
D03*
D73*
X454941Y268347D02*
D03*
Y313347D02*
D03*
Y189567D02*
D03*
Y234567D02*
D03*
Y108543D02*
D03*
Y153543D02*
D03*
Y29803D02*
D03*
Y74803D02*
D03*
D74*
X466949Y259842D02*
D03*
Y321850D02*
D03*
X442933Y259842D02*
D03*
Y321850D02*
D03*
X466949Y181063D02*
D03*
Y243071D02*
D03*
X442933Y181063D02*
D03*
Y243071D02*
D03*
X466949Y100039D02*
D03*
Y162047D02*
D03*
X442933Y100039D02*
D03*
Y162047D02*
D03*
X466949Y21299D02*
D03*
Y83307D02*
D03*
X442933Y21299D02*
D03*
Y83307D02*
D03*
D75*
X246024Y124016D02*
D03*
X226339D02*
D03*
X180732Y253937D02*
D03*
Y273622D02*
D03*
X55118Y246063D02*
D03*
X74803D02*
D03*
D76*
X308287Y303150D02*
D03*
D77*
X337776D02*
D03*
D78*
X109173Y143425D02*
D03*
X304961Y244724D02*
D03*
D79*
X119173Y143425D02*
D03*
X109173Y133425D02*
D03*
X119173D02*
D03*
X109173Y123425D02*
D03*
X119173D02*
D03*
X109173Y113425D02*
D03*
X119173D02*
D03*
X109173Y103425D02*
D03*
X119173D02*
D03*
X109173Y93425D02*
D03*
X119173D02*
D03*
X109173Y83425D02*
D03*
X119173D02*
D03*
X109173Y73425D02*
D03*
X119173D02*
D03*
X109173Y63425D02*
D03*
X119173D02*
D03*
X109173Y53425D02*
D03*
X119173D02*
D03*
X314961Y244724D02*
D03*
X304961Y234724D02*
D03*
X314961D02*
D03*
X304961Y224724D02*
D03*
X314961D02*
D03*
X304961Y214724D02*
D03*
X314961D02*
D03*
X304961Y204724D02*
D03*
X314961D02*
D03*
X304961Y194724D02*
D03*
X314961D02*
D03*
X304961Y184724D02*
D03*
X314961D02*
D03*
X304961Y174724D02*
D03*
X314961D02*
D03*
X304961Y164724D02*
D03*
X314961D02*
D03*
X304961Y154724D02*
D03*
X314961D02*
D03*
D80*
X43307Y220630D02*
D03*
X221535Y289370D02*
D03*
D81*
X43307Y210630D02*
D03*
D82*
X211535Y289370D02*
D03*
D83*
X196850Y73425D02*
D03*
Y83425D02*
D03*
Y93425D02*
D03*
Y103425D02*
D03*
Y113425D02*
D03*
Y136417D02*
D03*
Y146417D02*
D03*
Y156417D02*
D03*
Y166417D02*
D03*
Y176417D02*
D03*
X185039Y136417D02*
D03*
Y146417D02*
D03*
Y156417D02*
D03*
Y166417D02*
D03*
Y176417D02*
D03*
Y73425D02*
D03*
Y83425D02*
D03*
Y93425D02*
D03*
Y103425D02*
D03*
Y113425D02*
D03*
X43307Y73425D02*
D03*
Y83425D02*
D03*
Y93425D02*
D03*
Y103425D02*
D03*
Y113425D02*
D03*
X43307Y136417D02*
D03*
Y146417D02*
D03*
Y156417D02*
D03*
Y166417D02*
D03*
Y176417D02*
D03*
X31496Y136417D02*
D03*
Y146417D02*
D03*
Y156417D02*
D03*
Y166417D02*
D03*
Y176417D02*
D03*
Y73425D02*
D03*
Y83425D02*
D03*
Y93425D02*
D03*
Y103425D02*
D03*
Y113425D02*
D03*
D84*
X196850Y123425D02*
D03*
Y186417D02*
D03*
X185039D02*
D03*
Y123425D02*
D03*
X43307D02*
D03*
X43307Y186417D02*
D03*
X31496D02*
D03*
Y123425D02*
D03*
D85*
X372047Y21299D02*
D03*
X411417D02*
D03*
X372047Y321850D02*
D03*
X411417D02*
D03*
D86*
X372343Y259590D02*
D03*
Y240377D02*
D03*
D87*
X438976Y131890D02*
D03*
X434827D02*
D03*
X398895Y116278D02*
D03*
X408756Y60460D02*
D03*
X402571Y48588D02*
D03*
X273594Y258561D02*
D03*
X254264Y247162D02*
D03*
X268116Y259071D02*
D03*
X408854Y107359D02*
D03*
X403555Y95362D02*
D03*
X408987Y83759D02*
D03*
X403543Y71798D02*
D03*
X266175Y276193D02*
D03*
X261248Y259071D02*
D03*
X397638Y68898D02*
D03*
Y92520D02*
D03*
X374016Y285433D02*
D03*
D88*
X86509Y294242D02*
D03*
X410754Y238872D02*
D03*
X403503Y149773D02*
D03*
M02*
