G04*
G04 #@! TF.GenerationSoftware,Altium Limited,Altium Designer,24.5.2 (23)*
G04*
G04 Layer_Color=16711935*
%FSLAX25Y25*%
%MOIN*%
G70*
G04*
G04 #@! TF.SameCoordinates,9B7F9CCD-A6DE-4D0A-8549-E18A49B85F1C*
G04*
G04*
G04 #@! TF.FilePolarity,Negative*
G04*
G01*
G75*
%ADD48C,0.06312*%
%ADD49C,0.14580*%
%ADD50C,0.10249*%
%ADD51C,0.06706*%
%ADD52C,0.05918*%
%ADD53C,0.04737*%
%ADD54R,0.07296X0.07296*%
%ADD55C,0.07296*%
%ADD56C,0.06194*%
%ADD57R,0.06194X0.06194*%
%ADD58R,0.06194X0.06194*%
%ADD59C,0.05603*%
%ADD60R,0.05603X0.05603*%
%ADD61C,0.06237*%
%ADD62C,0.06800*%
%ADD63C,0.03950*%
%ADD64C,0.03556*%
D48*
X479941Y288347D02*
D03*
X489941Y293347D02*
D03*
Y283347D02*
D03*
X479941Y298346D02*
D03*
Y278346D02*
D03*
X489941Y303346D02*
D03*
Y273346D02*
D03*
X479941Y308347D02*
D03*
Y209567D02*
D03*
X489941Y214567D02*
D03*
Y204567D02*
D03*
X479941Y219567D02*
D03*
Y199567D02*
D03*
X489941Y224567D02*
D03*
Y194567D02*
D03*
X479941Y229567D02*
D03*
Y128543D02*
D03*
X489941Y133543D02*
D03*
Y123543D02*
D03*
X479941Y138543D02*
D03*
Y118543D02*
D03*
X489941Y143543D02*
D03*
Y113543D02*
D03*
X479941Y148543D02*
D03*
Y49803D02*
D03*
X489941Y54803D02*
D03*
Y44803D02*
D03*
X479941Y59803D02*
D03*
Y39803D02*
D03*
X489941Y64803D02*
D03*
Y34803D02*
D03*
X479941Y69803D02*
D03*
D49*
X454941Y268347D02*
D03*
Y313347D02*
D03*
Y189567D02*
D03*
Y234567D02*
D03*
Y108543D02*
D03*
Y153543D02*
D03*
Y29803D02*
D03*
Y74803D02*
D03*
D50*
X466949Y259842D02*
D03*
Y321850D02*
D03*
X442933Y259842D02*
D03*
Y321850D02*
D03*
X466949Y181063D02*
D03*
Y243071D02*
D03*
X442933Y181063D02*
D03*
Y243071D02*
D03*
X466949Y100039D02*
D03*
Y162047D02*
D03*
X442933Y100039D02*
D03*
Y162047D02*
D03*
X466949Y21299D02*
D03*
Y83307D02*
D03*
X442933Y21299D02*
D03*
Y83307D02*
D03*
D51*
X246024Y124016D02*
D03*
X226339D02*
D03*
X180732Y253937D02*
D03*
Y273622D02*
D03*
X55118Y246063D02*
D03*
X74803D02*
D03*
D52*
X308287Y303150D02*
D03*
D53*
X337776D02*
D03*
D54*
X109173Y143425D02*
D03*
X304961Y244724D02*
D03*
D55*
X119173Y143425D02*
D03*
X109173Y133425D02*
D03*
X119173D02*
D03*
X109173Y123425D02*
D03*
X119173D02*
D03*
X109173Y113425D02*
D03*
X119173D02*
D03*
X109173Y103425D02*
D03*
X119173D02*
D03*
X109173Y93425D02*
D03*
X119173D02*
D03*
X109173Y83425D02*
D03*
X119173D02*
D03*
X109173Y73425D02*
D03*
X119173D02*
D03*
X109173Y63425D02*
D03*
X119173D02*
D03*
X109173Y53425D02*
D03*
X119173D02*
D03*
X314961Y244724D02*
D03*
X304961Y234724D02*
D03*
X314961D02*
D03*
X304961Y224724D02*
D03*
X314961D02*
D03*
X304961Y214724D02*
D03*
X314961D02*
D03*
X304961Y204724D02*
D03*
X314961D02*
D03*
X304961Y194724D02*
D03*
X314961D02*
D03*
X304961Y184724D02*
D03*
X314961D02*
D03*
X304961Y174724D02*
D03*
X314961D02*
D03*
X304961Y164724D02*
D03*
X314961D02*
D03*
X304961Y154724D02*
D03*
X314961D02*
D03*
D56*
X43307Y220630D02*
D03*
X221535Y289370D02*
D03*
D57*
X43307Y210630D02*
D03*
D58*
X211535Y289370D02*
D03*
D59*
X196850Y73425D02*
D03*
Y83425D02*
D03*
Y93425D02*
D03*
Y103425D02*
D03*
Y113425D02*
D03*
Y136417D02*
D03*
Y146417D02*
D03*
Y156417D02*
D03*
Y166417D02*
D03*
Y176417D02*
D03*
X185039Y136417D02*
D03*
Y146417D02*
D03*
Y156417D02*
D03*
Y166417D02*
D03*
Y176417D02*
D03*
Y73425D02*
D03*
Y83425D02*
D03*
Y93425D02*
D03*
Y103425D02*
D03*
Y113425D02*
D03*
X43307Y73425D02*
D03*
Y83425D02*
D03*
Y93425D02*
D03*
Y103425D02*
D03*
Y113425D02*
D03*
X43307Y136417D02*
D03*
Y146417D02*
D03*
Y156417D02*
D03*
Y166417D02*
D03*
Y176417D02*
D03*
X31496Y136417D02*
D03*
Y146417D02*
D03*
Y156417D02*
D03*
Y166417D02*
D03*
Y176417D02*
D03*
Y73425D02*
D03*
Y83425D02*
D03*
Y93425D02*
D03*
Y103425D02*
D03*
Y113425D02*
D03*
D60*
X196850Y123425D02*
D03*
Y186417D02*
D03*
X185039D02*
D03*
Y123425D02*
D03*
X43307D02*
D03*
X43307Y186417D02*
D03*
X31496D02*
D03*
Y123425D02*
D03*
D61*
X372047Y21299D02*
D03*
X411417D02*
D03*
X372047Y321850D02*
D03*
X411417D02*
D03*
D62*
X372343Y259590D02*
D03*
Y240377D02*
D03*
D63*
X438976Y131890D02*
D03*
X434827D02*
D03*
X398895Y116278D02*
D03*
X408756Y60460D02*
D03*
X402571Y48588D02*
D03*
X273594Y258561D02*
D03*
X254264Y247162D02*
D03*
X268116Y259071D02*
D03*
X408854Y107359D02*
D03*
X403555Y95362D02*
D03*
X408987Y83759D02*
D03*
X403543Y71798D02*
D03*
X266175Y276193D02*
D03*
X261248Y259071D02*
D03*
X397638Y68898D02*
D03*
Y92520D02*
D03*
X374016Y285433D02*
D03*
D64*
X86509Y294242D02*
D03*
X410754Y238872D02*
D03*
X403503Y149773D02*
D03*
M02*
