G04*
G04 #@! TF.GenerationSoftware,Altium Limited,Altium Designer,24.5.2 (23)*
G04*
G04 Layer_Color=255*
%FSLAX25Y25*%
%MOIN*%
G70*
G04*
G04 #@! TF.SameCoordinates,9B7F9CCD-A6DE-4D0A-8549-E18A49B85F1C*
G04*
G04*
G04 #@! TF.FilePolarity,Positive*
G04*
G01*
G75*
%ADD72C,0.05512*%
%ADD73C,0.13780*%
%ADD74C,0.09449*%
%ADD75C,0.05906*%
%ADD76C,0.05118*%
%ADD77C,0.03937*%
%ADD78R,0.06496X0.06496*%
%ADD79C,0.06496*%
%ADD80C,0.05394*%
%ADD81R,0.05394X0.05394*%
%ADD82R,0.05394X0.05394*%
%ADD83C,0.04803*%
%ADD84R,0.04803X0.04803*%
%ADD85C,0.05437*%
%ADD86C,0.06000*%
D72*
X479941Y288347D02*
D03*
X489941Y293347D02*
D03*
Y283347D02*
D03*
X479941Y298346D02*
D03*
Y278346D02*
D03*
X489941Y303346D02*
D03*
Y273346D02*
D03*
X479941Y308347D02*
D03*
Y209567D02*
D03*
X489941Y214567D02*
D03*
Y204567D02*
D03*
X479941Y219567D02*
D03*
Y199567D02*
D03*
X489941Y224567D02*
D03*
Y194567D02*
D03*
X479941Y229567D02*
D03*
Y128543D02*
D03*
X489941Y133543D02*
D03*
Y123543D02*
D03*
X479941Y138543D02*
D03*
Y118543D02*
D03*
X489941Y143543D02*
D03*
Y113543D02*
D03*
X479941Y148543D02*
D03*
Y49803D02*
D03*
X489941Y54803D02*
D03*
Y44803D02*
D03*
X479941Y59803D02*
D03*
Y39803D02*
D03*
X489941Y64803D02*
D03*
Y34803D02*
D03*
X479941Y69803D02*
D03*
D73*
X454941Y268347D02*
D03*
Y313347D02*
D03*
Y189567D02*
D03*
Y234567D02*
D03*
Y108543D02*
D03*
Y153543D02*
D03*
Y29803D02*
D03*
Y74803D02*
D03*
D74*
X466949Y259842D02*
D03*
Y321850D02*
D03*
X442933Y259842D02*
D03*
Y321850D02*
D03*
X466949Y181063D02*
D03*
Y243071D02*
D03*
X442933Y181063D02*
D03*
Y243071D02*
D03*
X466949Y100039D02*
D03*
Y162047D02*
D03*
X442933Y100039D02*
D03*
Y162047D02*
D03*
X466949Y21299D02*
D03*
Y83307D02*
D03*
X442933Y21299D02*
D03*
Y83307D02*
D03*
D75*
X246024Y124016D02*
D03*
X226339D02*
D03*
X180732Y253937D02*
D03*
Y273622D02*
D03*
X55118Y246063D02*
D03*
X74803D02*
D03*
D76*
X308287Y303150D02*
D03*
D77*
X337776D02*
D03*
D78*
X109173Y143425D02*
D03*
X304961Y244724D02*
D03*
D79*
X119173Y143425D02*
D03*
X109173Y133425D02*
D03*
X119173D02*
D03*
X109173Y123425D02*
D03*
X119173D02*
D03*
X109173Y113425D02*
D03*
X119173D02*
D03*
X109173Y103425D02*
D03*
X119173D02*
D03*
X109173Y93425D02*
D03*
X119173D02*
D03*
X109173Y83425D02*
D03*
X119173D02*
D03*
X109173Y73425D02*
D03*
X119173D02*
D03*
X109173Y63425D02*
D03*
X119173D02*
D03*
X109173Y53425D02*
D03*
X119173D02*
D03*
X314961Y244724D02*
D03*
X304961Y234724D02*
D03*
X314961D02*
D03*
X304961Y224724D02*
D03*
X314961D02*
D03*
X304961Y214724D02*
D03*
X314961D02*
D03*
X304961Y204724D02*
D03*
X314961D02*
D03*
X304961Y194724D02*
D03*
X314961D02*
D03*
X304961Y184724D02*
D03*
X314961D02*
D03*
X304961Y174724D02*
D03*
X314961D02*
D03*
X304961Y164724D02*
D03*
X314961D02*
D03*
X304961Y154724D02*
D03*
X314961D02*
D03*
D80*
X43307Y220630D02*
D03*
X221535Y289370D02*
D03*
D81*
X43307Y210630D02*
D03*
D82*
X211535Y289370D02*
D03*
D83*
X196850Y73425D02*
D03*
Y83425D02*
D03*
Y93425D02*
D03*
Y103425D02*
D03*
Y113425D02*
D03*
Y136417D02*
D03*
Y146417D02*
D03*
Y156417D02*
D03*
Y166417D02*
D03*
Y176417D02*
D03*
X185039Y136417D02*
D03*
Y146417D02*
D03*
Y156417D02*
D03*
Y166417D02*
D03*
Y176417D02*
D03*
Y73425D02*
D03*
Y83425D02*
D03*
Y93425D02*
D03*
Y103425D02*
D03*
Y113425D02*
D03*
X43307Y73425D02*
D03*
Y83425D02*
D03*
Y93425D02*
D03*
Y103425D02*
D03*
Y113425D02*
D03*
X43307Y136417D02*
D03*
Y146417D02*
D03*
Y156417D02*
D03*
Y166417D02*
D03*
Y176417D02*
D03*
X31496Y136417D02*
D03*
Y146417D02*
D03*
Y156417D02*
D03*
Y166417D02*
D03*
Y176417D02*
D03*
Y73425D02*
D03*
Y83425D02*
D03*
Y93425D02*
D03*
Y103425D02*
D03*
Y113425D02*
D03*
D84*
X196850Y123425D02*
D03*
Y186417D02*
D03*
X185039D02*
D03*
Y123425D02*
D03*
X43307D02*
D03*
X43307Y186417D02*
D03*
X31496D02*
D03*
Y123425D02*
D03*
D85*
X372047Y21299D02*
D03*
X411417D02*
D03*
X372047Y321850D02*
D03*
X411417D02*
D03*
D86*
X372343Y259590D02*
D03*
Y240377D02*
D03*
M02*
