G04*
G04 #@! TF.GenerationSoftware,Altium Limited,Altium Designer,24.5.2 (23)*
G04*
G04 Layer_Color=255*
%FSLAX25Y25*%
%MOIN*%
G70*
G04*
G04 #@! TF.SameCoordinates,C1D1CED9-D59A-4D41-A557-90BC5B06C9CD*
G04*
G04*
G04 #@! TF.FilePolarity,Positive*
G04*
G01*
G75*
%ADD16R,0.08504X0.04213*%
%ADD17R,0.03937X0.05512*%
%ADD18R,0.05512X0.03937*%
%ADD19R,0.03150X0.05906*%
%ADD20R,0.14173X0.10236*%
%ADD21R,0.01772X0.05709*%
%ADD22R,0.01968X0.03150*%
%ADD23R,0.04016X0.03701*%
%ADD24R,0.05118X0.04724*%
%ADD25R,0.04724X0.05118*%
%ADD26R,0.03701X0.04016*%
%ADD27R,0.11417X0.21260*%
%ADD28R,0.08661X0.16929*%
%ADD29R,0.04134X0.02362*%
%ADD30R,0.06016X0.02559*%
%ADD31R,0.05118X0.02362*%
%AMCUSTOMSHAPE67*
4,1,8,0.15098,-0.21260,0.09311,-0.21260,0.09311,-0.17126,-0.15098,-0.17126,-0.15098,0.17126,0.09311,0.17126,0.09311,0.21260,0.15098,0.21260,0.15098,-0.21260,0.0*%
%ADD67CUSTOMSHAPE67*%

%ADD72C,0.05512*%
%ADD73C,0.13780*%
%ADD74C,0.09449*%
%ADD75C,0.05906*%
%ADD76C,0.05118*%
%ADD77C,0.03937*%
%ADD78R,0.06496X0.06496*%
%ADD79C,0.06496*%
%ADD80C,0.05394*%
%ADD81R,0.05394X0.05394*%
%ADD82R,0.05394X0.05394*%
%ADD83C,0.04803*%
%ADD84R,0.04803X0.04803*%
%ADD85C,0.05437*%
%ADD86C,0.06000*%
D16*
X97829Y248825D02*
D03*
Y255518D02*
D03*
Y262211D02*
D03*
Y268904D02*
D03*
Y275597D02*
D03*
D17*
X411221Y216138D02*
D03*
X418701D02*
D03*
X414961Y224799D02*
D03*
D18*
X190551Y21457D02*
D03*
Y13976D02*
D03*
X199213Y17717D02*
D03*
D19*
X251220Y72835D02*
D03*
X246220D02*
D03*
X241220D02*
D03*
X236221D02*
D03*
X231221D02*
D03*
X226220D02*
D03*
X221220D02*
D03*
X256221D02*
D03*
X226220Y9843D02*
D03*
X231221D02*
D03*
X236221D02*
D03*
X241220D02*
D03*
X246220D02*
D03*
X251220D02*
D03*
X256221D02*
D03*
X221220D02*
D03*
X300197Y72835D02*
D03*
X305197D02*
D03*
X310197D02*
D03*
X300197Y9843D02*
D03*
X305197D02*
D03*
X310197D02*
D03*
D20*
X291752Y303150D02*
D03*
X353917D02*
D03*
D21*
X385729Y246440D02*
D03*
X388287D02*
D03*
X390847D02*
D03*
X393406D02*
D03*
X395965D02*
D03*
X398524D02*
D03*
X401083D02*
D03*
X403642D02*
D03*
X406201D02*
D03*
X408760D02*
D03*
X385729Y269668D02*
D03*
X388287D02*
D03*
X390847D02*
D03*
X393406D02*
D03*
X395965D02*
D03*
X398524D02*
D03*
X401083D02*
D03*
X403642D02*
D03*
X406201D02*
D03*
X408760D02*
D03*
D22*
X262402Y270079D02*
D03*
X265945D02*
D03*
X269488D02*
D03*
X273031D02*
D03*
Y265354D02*
D03*
X269488D02*
D03*
X265945D02*
D03*
X262402D02*
D03*
D23*
X259693Y282659D02*
D03*
Y288880D02*
D03*
Y247195D02*
D03*
Y253415D02*
D03*
X266071Y247195D02*
D03*
Y253415D02*
D03*
X273012Y247195D02*
D03*
Y253415D02*
D03*
X208895Y23586D02*
D03*
Y17365D02*
D03*
X413175Y146632D02*
D03*
Y140412D02*
D03*
Y128595D02*
D03*
Y134815D02*
D03*
X404228Y222481D02*
D03*
Y216261D02*
D03*
X417323Y239331D02*
D03*
Y233110D02*
D03*
X420130Y292480D02*
D03*
Y286260D02*
D03*
X413175Y115984D02*
D03*
Y122205D02*
D03*
X403543Y77598D02*
D03*
Y83819D02*
D03*
Y53976D02*
D03*
Y60197D02*
D03*
Y101221D02*
D03*
Y107441D02*
D03*
D24*
X273012Y281792D02*
D03*
Y289272D02*
D03*
X266071Y281792D02*
D03*
Y289272D02*
D03*
X210195Y265748D02*
D03*
Y273228D02*
D03*
X198771Y265748D02*
D03*
Y273228D02*
D03*
X90448Y221405D02*
D03*
Y228886D02*
D03*
X83261Y221405D02*
D03*
Y228886D02*
D03*
X414961Y246440D02*
D03*
Y253920D02*
D03*
X357465Y259558D02*
D03*
Y267038D02*
D03*
Y240268D02*
D03*
Y232787D02*
D03*
X379910Y285630D02*
D03*
Y293110D02*
D03*
D25*
X218465Y84646D02*
D03*
X225945D02*
D03*
X218465Y92520D02*
D03*
X225945D02*
D03*
X206754Y6344D02*
D03*
X199274D02*
D03*
X106696Y229188D02*
D03*
X99215D02*
D03*
X395472Y147638D02*
D03*
X387992D02*
D03*
D26*
X196725Y28799D02*
D03*
X190504D02*
D03*
X91845Y288430D02*
D03*
X98066D02*
D03*
X98066Y294335D02*
D03*
X91845D02*
D03*
X386653Y116142D02*
D03*
X392874D02*
D03*
X390905Y92520D02*
D03*
X384685D02*
D03*
X390905Y68898D02*
D03*
X384685D02*
D03*
D27*
X175575Y313072D02*
D03*
X136599D02*
D03*
D28*
X121885Y313677D02*
D03*
X94325D02*
D03*
D29*
X385433Y80709D02*
D03*
X394094Y84449D02*
D03*
Y76968D02*
D03*
X393898Y100591D02*
D03*
Y108071D02*
D03*
X385236Y104331D02*
D03*
X394094Y53347D02*
D03*
Y60827D02*
D03*
X385433Y57087D02*
D03*
D30*
X378894Y139205D02*
D03*
Y134205D02*
D03*
Y129205D02*
D03*
Y124205D02*
D03*
X400240D02*
D03*
Y129205D02*
D03*
Y134205D02*
D03*
Y139205D02*
D03*
D31*
X390748Y296870D02*
D03*
Y291870D02*
D03*
Y286870D02*
D03*
Y281870D02*
D03*
X412402Y296870D02*
D03*
Y291870D02*
D03*
Y286870D02*
D03*
Y281870D02*
D03*
D67*
X138518Y262211D02*
D03*
D72*
X479941Y288347D02*
D03*
X489941Y293347D02*
D03*
Y283347D02*
D03*
X479941Y298346D02*
D03*
Y278346D02*
D03*
X489941Y303346D02*
D03*
Y273346D02*
D03*
X479941Y308347D02*
D03*
Y209567D02*
D03*
X489941Y214567D02*
D03*
Y204567D02*
D03*
X479941Y219567D02*
D03*
Y199567D02*
D03*
X489941Y224567D02*
D03*
Y194567D02*
D03*
X479941Y229567D02*
D03*
Y128543D02*
D03*
X489941Y133543D02*
D03*
Y123543D02*
D03*
X479941Y138543D02*
D03*
Y118543D02*
D03*
X489941Y143543D02*
D03*
Y113543D02*
D03*
X479941Y148543D02*
D03*
Y49803D02*
D03*
X489941Y54803D02*
D03*
Y44803D02*
D03*
X479941Y59803D02*
D03*
Y39803D02*
D03*
X489941Y64803D02*
D03*
Y34803D02*
D03*
X479941Y69803D02*
D03*
D73*
X454941Y268347D02*
D03*
Y313347D02*
D03*
Y189567D02*
D03*
Y234567D02*
D03*
Y108543D02*
D03*
Y153543D02*
D03*
Y29803D02*
D03*
Y74803D02*
D03*
D74*
X466949Y259842D02*
D03*
Y321850D02*
D03*
X442933Y259842D02*
D03*
Y321850D02*
D03*
X466949Y181063D02*
D03*
Y243071D02*
D03*
X442933Y181063D02*
D03*
Y243071D02*
D03*
X466949Y100039D02*
D03*
Y162047D02*
D03*
X442933Y100039D02*
D03*
Y162047D02*
D03*
X466949Y21299D02*
D03*
Y83307D02*
D03*
X442933Y21299D02*
D03*
Y83307D02*
D03*
D75*
X246024Y124016D02*
D03*
X226339D02*
D03*
X180732Y253937D02*
D03*
Y273622D02*
D03*
X55118Y246063D02*
D03*
X74803D02*
D03*
D76*
X308287Y303150D02*
D03*
D77*
X337776D02*
D03*
D78*
X109173Y143425D02*
D03*
X304961Y244724D02*
D03*
D79*
X119173Y143425D02*
D03*
X109173Y133425D02*
D03*
X119173D02*
D03*
X109173Y123425D02*
D03*
X119173D02*
D03*
X109173Y113425D02*
D03*
X119173D02*
D03*
X109173Y103425D02*
D03*
X119173D02*
D03*
X109173Y93425D02*
D03*
X119173D02*
D03*
X109173Y83425D02*
D03*
X119173D02*
D03*
X109173Y73425D02*
D03*
X119173D02*
D03*
X109173Y63425D02*
D03*
X119173D02*
D03*
X109173Y53425D02*
D03*
X119173D02*
D03*
X314961Y244724D02*
D03*
X304961Y234724D02*
D03*
X314961D02*
D03*
X304961Y224724D02*
D03*
X314961D02*
D03*
X304961Y214724D02*
D03*
X314961D02*
D03*
X304961Y204724D02*
D03*
X314961D02*
D03*
X304961Y194724D02*
D03*
X314961D02*
D03*
X304961Y184724D02*
D03*
X314961D02*
D03*
X304961Y174724D02*
D03*
X314961D02*
D03*
X304961Y164724D02*
D03*
X314961D02*
D03*
X304961Y154724D02*
D03*
X314961D02*
D03*
D80*
X43307Y220630D02*
D03*
X221535Y289370D02*
D03*
D81*
X43307Y210630D02*
D03*
D82*
X211535Y289370D02*
D03*
D83*
X196850Y73425D02*
D03*
Y83425D02*
D03*
Y93425D02*
D03*
Y103425D02*
D03*
Y113425D02*
D03*
Y136417D02*
D03*
Y146417D02*
D03*
Y156417D02*
D03*
Y166417D02*
D03*
Y176417D02*
D03*
X185039Y136417D02*
D03*
Y146417D02*
D03*
Y156417D02*
D03*
Y166417D02*
D03*
Y176417D02*
D03*
Y73425D02*
D03*
Y83425D02*
D03*
Y93425D02*
D03*
Y103425D02*
D03*
Y113425D02*
D03*
X43307Y73425D02*
D03*
Y83425D02*
D03*
Y93425D02*
D03*
Y103425D02*
D03*
Y113425D02*
D03*
X43307Y136417D02*
D03*
Y146417D02*
D03*
Y156417D02*
D03*
Y166417D02*
D03*
Y176417D02*
D03*
X31496Y136417D02*
D03*
Y146417D02*
D03*
Y156417D02*
D03*
Y166417D02*
D03*
Y176417D02*
D03*
Y73425D02*
D03*
Y83425D02*
D03*
Y93425D02*
D03*
Y103425D02*
D03*
Y113425D02*
D03*
D84*
X196850Y123425D02*
D03*
Y186417D02*
D03*
X185039D02*
D03*
Y123425D02*
D03*
X43307D02*
D03*
X43307Y186417D02*
D03*
X31496D02*
D03*
Y123425D02*
D03*
D85*
X372047Y21299D02*
D03*
X411417D02*
D03*
X372047Y321850D02*
D03*
X411417D02*
D03*
D86*
X372343Y259590D02*
D03*
Y240377D02*
D03*
M02*
