G04*
G04 #@! TF.GenerationSoftware,Altium Limited,Altium Designer,24.5.2 (23)*
G04*
G04 Layer_Color=32896*
%FSLAX25Y25*%
%MOIN*%
G70*
G04*
G04 #@! TF.SameCoordinates,C1D1CED9-D59A-4D41-A557-90BC5B06C9CD*
G04*
G04*
G04 #@! TF.FilePolarity,Positive*
G04*
G01*
G75*
%ADD10C,0.00500*%
%ADD13C,0.00197*%
%ADD14C,0.00799*%
%ADD15C,0.00800*%
D10*
X191850Y68425D02*
Y128425D01*
X201850Y68425D02*
Y128425D01*
X191850D02*
X201850D01*
X191850Y68425D02*
X201850D01*
X191850Y131417D02*
Y191417D01*
X201850Y131417D02*
Y191417D01*
X191850D02*
X201850D01*
X191850Y131417D02*
X201850D01*
X180039D02*
Y191417D01*
X190039Y131417D02*
Y191417D01*
X180039D02*
X190039D01*
X180039Y131417D02*
X190039D01*
X180039Y68425D02*
Y128425D01*
X190039Y68425D02*
Y128425D01*
X180039D02*
X190039D01*
X180039Y68425D02*
X190039D01*
X38307D02*
Y128425D01*
X48307Y68425D02*
Y128425D01*
X38307D02*
X48307D01*
X38307Y68425D02*
X48307D01*
X38307Y131417D02*
Y191417D01*
X48307Y131417D02*
Y191417D01*
X38307D02*
X48307D01*
X38307Y131417D02*
X48307D01*
X26496D02*
Y191417D01*
X36496Y131417D02*
Y191417D01*
X26496D02*
X36496D01*
X26496Y131417D02*
X36496D01*
X26496Y68425D02*
Y128425D01*
X36496Y68425D02*
Y128425D01*
X26496D02*
X36496D01*
X26496Y68425D02*
X36496D01*
D13*
X191960Y127992D02*
X192238Y128270D01*
X192415D01*
X191985Y127839D02*
X192415Y128270D01*
X191985Y127688D02*
Y127839D01*
Y127688D02*
X192542Y128245D01*
X192656D01*
X192023Y127611D02*
X192656Y128245D01*
X192023Y127447D02*
Y127611D01*
Y127447D02*
X192884Y128308D01*
X193024D01*
X191998Y127282D02*
X193024Y128308D01*
X191998Y127042D02*
Y127282D01*
X191960Y190984D02*
X192238Y191262D01*
X192415D01*
X191985Y190831D02*
X192415Y191262D01*
X191985Y190680D02*
Y190831D01*
Y190680D02*
X192542Y191237D01*
X192656D01*
X192023Y190604D02*
X192656Y191237D01*
X192023Y190439D02*
Y190604D01*
Y190439D02*
X192884Y191300D01*
X193024D01*
X191998Y190274D02*
X193024Y191300D01*
X191998Y190034D02*
Y190274D01*
X180149Y190984D02*
X180427Y191262D01*
X180605D01*
X180174Y190831D02*
X180605Y191262D01*
X180174Y190680D02*
Y190831D01*
Y190680D02*
X180731Y191237D01*
X180845D01*
X180212Y190604D02*
X180845Y191237D01*
X180212Y190439D02*
Y190604D01*
Y190439D02*
X181073Y191300D01*
X181212D01*
X180187Y190274D02*
X181212Y191300D01*
X180187Y190034D02*
Y190274D01*
X180149Y127992D02*
X180427Y128270D01*
X180605D01*
X180174Y127839D02*
X180605Y128270D01*
X180174Y127688D02*
Y127839D01*
Y127688D02*
X180731Y128245D01*
X180845D01*
X180212Y127611D02*
X180845Y128245D01*
X180212Y127447D02*
Y127611D01*
Y127447D02*
X181073Y128308D01*
X181212D01*
X180187Y127282D02*
X181212Y128308D01*
X180187Y127042D02*
Y127282D01*
X38416Y127992D02*
X38695Y128270D01*
X38872D01*
X38442Y127839D02*
X38872Y128270D01*
X38442Y127688D02*
Y127839D01*
Y127688D02*
X38999Y128245D01*
X39113D01*
X38480Y127611D02*
X39113Y128245D01*
X38480Y127447D02*
Y127611D01*
Y127447D02*
X39341Y128308D01*
X39480D01*
X38454Y127282D02*
X39480Y128308D01*
X38454Y127042D02*
Y127282D01*
X38416Y190984D02*
X38695Y191262D01*
X38872D01*
X38442Y190831D02*
X38872Y191262D01*
X38442Y190680D02*
Y190831D01*
Y190680D02*
X38999Y191237D01*
X39113D01*
X38480Y190604D02*
X39113Y191237D01*
X38480Y190439D02*
Y190604D01*
Y190439D02*
X39341Y191300D01*
X39480D01*
X38454Y190274D02*
X39480Y191300D01*
X38454Y190034D02*
Y190274D01*
X26605Y190984D02*
X26884Y191262D01*
X27061D01*
X26630Y190831D02*
X27061Y191262D01*
X26630Y190680D02*
Y190831D01*
Y190680D02*
X27188Y191237D01*
X27302D01*
X26669Y190604D02*
X27302Y191237D01*
X26669Y190439D02*
Y190604D01*
Y190439D02*
X27530Y191300D01*
X27669D01*
X26643Y190274D02*
X27669Y191300D01*
X26643Y190034D02*
Y190274D01*
X26605Y127992D02*
X26884Y128270D01*
X27061D01*
X26630Y127839D02*
X27061Y128270D01*
X26630Y127688D02*
Y127839D01*
Y127688D02*
X27188Y128245D01*
X27302D01*
X26669Y127611D02*
X27302Y128245D01*
X26669Y127447D02*
Y127611D01*
Y127447D02*
X27530Y128308D01*
X27669D01*
X26643Y127282D02*
X27669Y128308D01*
X26643Y127042D02*
Y127282D01*
D14*
X29528Y66460D02*
X30527D01*
X30027D01*
Y63961D01*
X30527Y63461D01*
X31027D01*
X31527Y63961D01*
X28528Y63461D02*
X27528D01*
X28028D01*
Y66460D01*
X28528Y65960D01*
D15*
X195382Y66460D02*
X196381D01*
X195882D01*
Y63961D01*
X196381Y63461D01*
X196881D01*
X197381Y63961D01*
X194382Y65960D02*
X193882Y66460D01*
X192883D01*
X192383Y65960D01*
Y65460D01*
X192883Y64961D01*
X192383Y64461D01*
Y63961D01*
X192883Y63461D01*
X193882D01*
X194382Y63961D01*
Y64461D01*
X193882Y64961D01*
X194382Y65460D01*
Y65960D01*
X193882Y64961D02*
X192883D01*
X195382Y196381D02*
X196381D01*
X195882D01*
Y193882D01*
X196381Y193382D01*
X196881D01*
X197381Y193882D01*
X194382Y196381D02*
X192383D01*
Y195882D01*
X194382Y193882D01*
Y193382D01*
X183571Y196381D02*
X184570D01*
X184071D01*
Y193882D01*
X184570Y193382D01*
X185070D01*
X185570Y193882D01*
X180572Y196381D02*
X181571Y195882D01*
X182571Y194882D01*
Y193882D01*
X182071Y193382D01*
X181071D01*
X180572Y193882D01*
Y194382D01*
X181071Y194882D01*
X182571D01*
X183571Y66460D02*
X184570D01*
X184071D01*
Y63961D01*
X184570Y63461D01*
X185070D01*
X185570Y63961D01*
X180572Y66460D02*
X182571D01*
Y64961D01*
X181571Y65460D01*
X181071D01*
X180572Y64961D01*
Y63961D01*
X181071Y63461D01*
X182071D01*
X182571Y63961D01*
X40839Y66460D02*
X39839D01*
X40339D01*
Y63961D01*
X39839Y63461D01*
X39339D01*
X38839Y63961D01*
X43338Y63461D02*
Y66460D01*
X41838Y64961D01*
X43838D01*
X41838Y196381D02*
X42838D01*
X42338D01*
Y193882D01*
X42838Y193382D01*
X43338D01*
X43838Y193882D01*
X40839Y195882D02*
X40339Y196381D01*
X39339D01*
X38839Y195882D01*
Y195382D01*
X39339Y194882D01*
X39839D01*
X39339D01*
X38839Y194382D01*
Y193882D01*
X39339Y193382D01*
X40339D01*
X40839Y193882D01*
X30027Y196381D02*
X31027D01*
X30527D01*
Y193882D01*
X31027Y193382D01*
X31527D01*
X32027Y193882D01*
X27028Y193382D02*
X29028D01*
X27028Y195382D01*
Y195882D01*
X27528Y196381D01*
X28528D01*
X29028Y195882D01*
M02*
