M48
;Layer_Color=9474304
;FILE_FORMAT=2:5
INCH,TZ
;TYPE=PLATED
T01F00S00C0.01181
T02F00S00C0.01968
T03F00S00C0.03000
T04F00S00C0.03150
T05F00S00C0.03189
T06F00S00C0.03346
T07F00S00C0.03543
T08F00S00C0.04016
T09F00S00C0.04331
T10F00S00C0.06299
T11F00S00C0.12480
;TYPE=NON_PLATED
T12F00S00C0.03937
T13F00S00C0.05118
%
T01
X434827Y131890
X438976
T02
X395669Y48228
X397638Y68898
X403543Y71798
X408756Y60460
X408987Y83759
X403555Y95362
X397638Y92520
X398895Y116278
X408854Y107359
X102362Y288386
X105699Y268904
X105689Y255460
X113098Y231941
X254264Y247162
X261248Y259071
X268116
X273594Y258561
X266175Y276193
X374016Y285433
X410754Y238872
X403503Y149773
X86509Y294242
T03
X372343Y240377
Y259590
T04
X226339Y124016
X246024
X74803Y246063
X55118
X180732Y253937
Y273622
T05
X185039Y73425
Y83425
Y93425
Y103425
Y113425
Y123425
X196850
Y113425
Y103425
Y93425
Y83425
Y73425
Y136417
X185039
X43307
X31496
Y123425
Y113425
Y103425
Y93425
Y83425
Y73425
X43307
Y83425
Y93425
Y103425
Y113425
Y123425
X43307Y146417
Y156417
Y166417
Y176417
Y186417
X31496
Y176417
Y166417
Y156417
Y146417
X185039
Y156417
Y166417
Y176417
Y186417
X196850
Y176417
Y166417
Y156417
Y146417
T06
X372047Y21299
X411417
Y321850
X372047
T07
X479941Y39803
Y49803
Y59803
Y69803
X489941Y64803
Y54803
Y44803
Y34803
Y113543
Y123543
Y133543
X479941Y128543
Y118543
Y138543
Y148543
X489941Y143543
Y194567
Y204567
Y214567
Y224567
X479941Y219567
Y209567
Y199567
Y229567
Y278346
Y288347
X489941Y293347
Y283347
Y273346
Y303346
X479941Y298346
Y308347
T08
X43307Y206614
Y216614
X211546Y298065
X221546
T09
X109173Y53425
Y63425
Y73425
Y83425
Y93425
Y103425
Y113425
Y123425
Y133425
X119173
Y123425
Y113425
Y103425
Y93425
Y83425
Y73425
Y63425
Y53425
Y143425
X109173
X304961Y154724
Y164724
Y174724
Y184724
Y194724
Y204724
Y214724
Y224724
Y234724
Y244724
X314961
Y234724
Y224724
Y214724
Y204724
Y194724
Y184724
Y174724
Y164724
Y154724
T10
X442933Y21299
X466949
Y83307
Y100039
X442933
Y83307
Y162047
Y181063
X466949
Y162047
Y243071
Y259842
X442933
Y243071
Y321850
X466949
T11
X454941Y29803
Y74803
Y108543
Y153543
Y189567
Y234567
Y268347
Y313347
T12
X337776Y303150
T13
X308287Y303150
M30
